<svg xmlns="http://www.w3.org/2000/svg" xmlns:xlink="http://www.w3.org/1999/xlink" width="500" zoomAndPan="magnify" viewBox="0 0 375 374.999991" height="500" preserveAspectRatio="xMidYMid meet" version="1.0"><defs><clipPath id="21dfa92031"><path d="M 128 105 L 263.949219 105 L 263.949219 285 L 128 285 Z M 128 105 " clip-rule="nonzero"/></clipPath><clipPath id="3c789ab572"><path d="M 111 89.675781 L 263.949219 89.675781 L 263.949219 285.425781 L 111 285.425781 Z M 111 89.675781 " clip-rule="nonzero"/></clipPath></defs><rect x="-37.5" width="450" fill="#ffffff" y="-37.499999" height="449.999989" fill-opacity="1"/><rect x="-37.5" width="450" fill="#ffffff" y="-37.499999" height="449.999989" fill-opacity="1"/><rect x="-37.5" width="450" fill="#ffffff" y="-37.499999" height="449.999989" fill-opacity="1"/><g clip-path="url(#21dfa92031)"><path fill="#8f0000" d="M 260.6875 106.457031 L 263.210938 110.25 L 261.949219 277.414062 C 261.949219 277.414062 261.949219 283.007812 256 283.007812 C 250.050781 283.007812 134.828125 284.453125 134.828125 284.453125 C 134.828125 284.453125 127.796875 283.371094 128.15625 279.21875 C 128.515625 275.066406 253.292969 105.195312 253.292969 105.195312 Z M 260.6875 106.457031 " fill-opacity="1" fill-rule="nonzero"/></g><path fill="#ffffff" d="M 257.445312 104.835938 L 261.050781 110.070312 L 259.066406 279.039062 L 250.050781 279.761719 Z M 257.445312 104.835938 " fill-opacity="1" fill-rule="nonzero"/><path fill="#00a0c6" d="M 128.199219 91.394531 L 245.101562 92.753906 C 245.101562 92.753906 254.929688 92.074219 255.945312 105.304688 C 256.960938 118.535156 256.195312 269.371094 256.195312 269.371094 C 256.195312 269.371094 257.066406 278.089844 240.519531 278.960938 C 223.972656 279.832031 131.652344 279.582031 131.652344 279.582031 C 131.652344 279.582031 126.054688 278.210938 124.808594 272.359375 C 123.566406 266.503906 123.566406 251.804688 123.566406 251.804688 L 123.191406 101.210938 C 123.191406 101.210938 122.011719 92.046875 128.199219 91.394531 Z M 128.199219 91.394531 " fill-opacity="1" fill-rule="evenodd"/><path fill="#cccccc" d="M 135.261719 109.261719 C 135.261719 111.003906 133.847656 112.421875 132.101562 112.421875 L 115.769531 112.421875 C 114.023438 112.421875 112.613281 111.003906 112.613281 109.261719 C 112.613281 107.511719 114.023438 106.097656 115.769531 106.097656 L 132.101562 106.097656 C 133.847656 106.097656 135.261719 107.511719 135.261719 109.261719 Z M 135.261719 109.261719 " fill-opacity="1" fill-rule="evenodd"/><path fill="#cccccc" d="M 135.101562 125.832031 C 135.101562 127.445312 133.792969 128.753906 132.183594 128.753906 L 115.53125 128.753906 C 113.917969 128.753906 112.613281 127.445312 112.613281 125.832031 C 112.613281 124.21875 113.917969 122.910156 115.53125 122.910156 L 132.183594 122.910156 C 133.792969 122.910156 135.101562 124.21875 135.101562 125.832031 Z M 135.101562 125.832031 " fill-opacity="1" fill-rule="evenodd"/><path fill="#cccccc" d="M 135.261719 142.886719 C 135.261719 144.636719 133.84375 146.050781 132.097656 146.050781 L 115.773438 146.050781 C 114.027344 146.050781 112.613281 144.636719 112.613281 142.886719 C 112.613281 141.136719 114.027344 139.722656 115.773438 139.722656 L 132.097656 139.722656 C 133.84375 139.722656 135.261719 141.136719 135.261719 142.886719 Z M 135.261719 142.886719 " fill-opacity="1" fill-rule="evenodd"/><path fill="#cccccc" d="M 134.886719 159.816406 C 134.886719 161.777344 133.246094 163.367188 131.222656 163.367188 L 115.660156 163.367188 C 113.632812 163.367188 111.992188 161.777344 111.992188 159.816406 C 111.992188 157.855469 113.632812 156.265625 115.660156 156.265625 L 131.222656 156.265625 C 133.246094 156.265625 134.886719 157.855469 134.886719 159.816406 Z M 134.886719 159.816406 " fill-opacity="1" fill-rule="evenodd"/><path fill="#cccccc" d="M 134.636719 176.882812 C 134.636719 178.84375 133 180.433594 130.972656 180.433594 L 115.410156 180.433594 C 113.386719 180.433594 111.746094 178.84375 111.746094 176.882812 C 111.746094 174.921875 113.386719 173.332031 115.410156 173.332031 L 130.972656 173.332031 C 133 173.332031 134.636719 174.921875 134.636719 176.882812 Z M 134.636719 176.882812 " fill-opacity="1" fill-rule="evenodd"/><path fill="#cccccc" d="M 134.636719 193.449219 C 134.636719 195.410156 133 197 130.972656 197 L 115.410156 197 C 113.386719 197 111.746094 195.410156 111.746094 193.449219 C 111.746094 191.488281 113.386719 189.898438 115.410156 189.898438 L 130.972656 189.898438 C 133 189.898438 134.636719 191.488281 134.636719 193.449219 Z M 134.636719 193.449219 " fill-opacity="1" fill-rule="evenodd"/><path fill="#cccccc" d="M 134.636719 210.265625 C 134.636719 212.226562 133 213.816406 130.972656 213.816406 L 115.410156 213.816406 C 113.386719 213.816406 111.746094 212.226562 111.746094 210.265625 C 111.746094 208.304688 113.386719 206.714844 115.410156 206.714844 L 130.972656 206.714844 C 133 206.714844 134.636719 208.304688 134.636719 210.265625 Z M 134.636719 210.265625 " fill-opacity="1" fill-rule="evenodd"/><path fill="#cccccc" d="M 134.636719 227.207031 C 134.636719 229.167969 133 230.753906 130.972656 230.753906 L 115.410156 230.753906 C 113.386719 230.753906 111.746094 229.167969 111.746094 227.207031 C 111.746094 225.246094 113.386719 223.65625 115.410156 223.65625 L 130.972656 223.65625 C 133 223.65625 134.636719 225.246094 134.636719 227.207031 Z M 134.636719 227.207031 " fill-opacity="1" fill-rule="evenodd"/><path fill="#cccccc" d="M 134.636719 244.019531 C 134.636719 245.980469 133 247.570312 130.972656 247.570312 L 115.410156 247.570312 C 113.386719 247.570312 111.746094 245.980469 111.746094 244.019531 C 111.746094 242.058594 113.386719 240.472656 115.410156 240.472656 L 130.972656 240.472656 C 133 240.472656 134.636719 242.058594 134.636719 244.019531 Z M 134.636719 244.019531 " fill-opacity="1" fill-rule="evenodd"/><path fill="#cccccc" d="M 134.636719 260.589844 C 134.636719 262.550781 133 264.140625 130.972656 264.140625 L 115.410156 264.140625 C 113.386719 264.140625 111.746094 262.550781 111.746094 260.589844 C 111.746094 258.628906 113.386719 257.039062 115.410156 257.039062 L 130.972656 257.039062 C 133 257.039062 134.636719 258.628906 134.636719 260.589844 Z M 134.636719 260.589844 " fill-opacity="1" fill-rule="evenodd"/><path fill="#ffffff" d="M 148.894531 114.945312 C 148.894531 114.945312 214.707031 114.402344 237.425781 117.652344 L 237.789062 157.546875 L 164.039062 155.742188 L 147.449219 155.378906 Z M 148.894531 114.945312 " fill-opacity="1" fill-rule="nonzero"/><path fill="#000000" d="M 148.03125 155.9375 C 148.621094 156.152344 149.164062 156.46875 149.734375 156.535156 C 151.617188 156.738281 153.511719 156.953125 155.402344 156.976562 C 165.785156 157.125 176.175781 157.179688 186.5625 157.355469 C 193.484375 157.472656 200.402344 157.683594 207.320312 157.949219 C 212.921875 158.164062 218.511719 158.597656 224.113281 158.789062 C 227.945312 158.917969 231.769531 158.65625 235.558594 157.503906 C 234.855469 157.417969 234.15625 157.285156 233.445312 157.25 C 229.824219 157.058594 226.199219 156.917969 222.582031 156.707031 C 216.574219 156.355469 210.574219 155.785156 204.5625 155.628906 C 193.109375 155.328125 181.652344 155.253906 170.195312 155.09375 C 163.515625 155.003906 156.839844 154.933594 150.164062 154.839844 C 149.375 154.828125 148.492188 154.550781 148.03125 155.9375 Z M 148.03125 155.9375 " fill-opacity="1" fill-rule="nonzero"/><path fill="#000000" d="M 156.480469 115.820312 C 165.722656 115.722656 174.964844 115.421875 184.203125 115.585938 C 191.949219 115.722656 199.6875 116.417969 207.433594 116.828125 C 216.082031 117.289062 224.734375 117.703125 233.386719 118.148438 C 234.210938 118.1875 235.054688 118.351562 235.65625 116.867188 C 234.949219 116.640625 234.371094 116.351562 233.769531 116.28125 C 232.214844 116.109375 230.652344 116.003906 229.089844 115.925781 C 221.09375 115.527344 213.09375 115.269531 205.109375 114.734375 C 192.671875 113.902344 180.234375 113.265625 167.765625 113.71875 C 162.570312 113.910156 157.371094 113.976562 152.175781 114.113281 C 151.320312 114.132812 150.371094 113.96875 149.621094 115.300781 C 150.484375 115.519531 151.125 115.792969 151.777344 115.820312 C 153.339844 115.878906 154.914062 115.835938 156.480469 115.820312 Z M 156.480469 115.820312 " fill-opacity="1" fill-rule="nonzero"/><path fill="#000000" d="M 205.09375 168.191406 C 199.492188 168.085938 193.886719 168.25 188.285156 168.355469 C 187.449219 168.371094 186.621094 168.742188 185.554688 169.011719 C 186.636719 170.539062 187.757812 170.371094 188.808594 170.398438 C 198.207031 170.617188 207.605469 170.886719 217.003906 171.03125 C 223.433594 171.128906 229.867188 171.070312 236.292969 171.03125 C 237.195312 171.023438 238.203125 171.167969 239.484375 170.1875 C 238.167969 169.910156 237.332031 169.664062 236.476562 169.574219 C 234.265625 169.339844 232.046875 169.078125 229.824219 168.992188 C 221.582031 168.675781 213.339844 168.34375 205.09375 168.191406 Z M 205.09375 168.191406 " fill-opacity="1" fill-rule="nonzero"/><path fill="#000000" d="M 234.925781 182.34375 C 226.277344 182.15625 217.625 181.964844 208.976562 181.773438 C 202.960938 181.640625 196.949219 181.496094 190.9375 181.398438 C 190.109375 181.386719 189.277344 181.625 188.453125 181.746094 C 188.527344 183.128906 189.277344 183.226562 190.03125 183.296875 C 192 183.464844 193.964844 183.710938 195.9375 183.773438 C 205.496094 184.078125 215.046875 184.386719 224.605469 184.574219 C 228.878906 184.65625 233.160156 184.464844 237.429688 184.347656 C 238.03125 184.332031 238.617188 184.035156 239.210938 183.867188 C 239.1875 183.652344 239.160156 183.441406 239.132812 183.222656 C 237.84375 182.496094 236.398438 182.378906 234.925781 182.34375 Z M 234.925781 182.34375 " fill-opacity="1" fill-rule="nonzero"/><path fill="#000000" d="M 237.226562 148.992188 C 237.265625 150.628906 237.535156 152.265625 237.699219 153.898438 C 237.757812 153.894531 237.820312 153.890625 237.878906 153.886719 C 237.917969 153.480469 237.980469 153.070312 237.988281 152.660156 C 238.226562 142.835938 238.472656 133.011719 238.675781 123.183594 C 238.714844 121.285156 238.628906 119.386719 238.507812 117.492188 C 238.46875 116.925781 238.121094 116.382812 237.847656 115.652344 C 236.667969 117.410156 236.554688 117.410156 236.59375 119.515625 C 236.761719 129.34375 236.976562 139.167969 237.226562 148.992188 Z M 237.226562 148.992188 " fill-opacity="1" fill-rule="nonzero"/><path fill="#000000" d="M 147.152344 151.996094 C 147.21875 152.027344 147.3125 151.988281 147.742188 151.945312 C 147.828125 151.261719 147.972656 150.496094 148.007812 149.722656 C 148.382812 141.894531 148.75 134.070312 149.09375 126.238281 C 149.203125 123.6875 149.277344 121.128906 149.273438 118.570312 C 149.273438 117.738281 149.484375 116.730469 148.382812 116.050781 C 148.113281 116.285156 147.976562 116.378906 147.878906 116.5 C 147.78125 116.628906 147.695312 116.785156 147.664062 116.9375 C 147.59375 117.261719 147.53125 117.589844 147.523438 117.917969 C 147.300781 128.640625 147.082031 139.367188 146.875 150.089844 C 146.863281 150.660156 146.96875 151.230469 147.03125 151.800781 C 147.035156 151.875 147.09375 151.96875 147.152344 151.996094 Z M 147.152344 151.996094 " fill-opacity="1" fill-rule="nonzero"/><path fill="#000000" d="M 207.953125 192.488281 C 209.148438 193.550781 210.40625 193.617188 211.574219 193.660156 C 217.75 193.875 223.925781 194.046875 230.097656 194.164062 C 231.4375 194.191406 232.78125 193.941406 234.484375 193.789062 C 231.382812 191.664062 211.597656 190.761719 207.953125 192.488281 Z M 207.953125 192.488281 " fill-opacity="1" fill-rule="nonzero"/><path fill="#000000" d="M 158.019531 264.03125 C 157.429688 264.179688 157.167969 264.164062 157.023438 264.292969 C 152.511719 268.148438 148 272.015625 143.527344 275.914062 C 143.050781 276.332031 142.617188 276.929688 142.441406 277.527344 C 142.164062 278.449219 142.714844 278.691406 143.550781 278.410156 C 148.578125 274.003906 153.382812 269.363281 158.019531 264.03125 Z M 158.019531 264.03125 " fill-opacity="1" fill-rule="nonzero"/><path fill="#000000" d="M 143.550781 278.410156 L 143.554688 278.40625 Z M 143.550781 278.410156 " fill-opacity="1" fill-rule="nonzero"/><path fill="#000000" d="M 143.550781 278.410156 C 143.519531 278.433594 143.488281 278.464844 143.460938 278.488281 L 143.554688 278.40625 C 143.554688 278.410156 143.550781 278.410156 143.550781 278.410156 Z M 143.550781 278.410156 " fill-opacity="1" fill-rule="nonzero"/><path fill="#000000" d="M 260.480469 199.585938 C 261.089844 185.277344 261.851562 170.976562 260.996094 156.695312 C 260.222656 171.007812 260.316406 185.296875 260.480469 199.585938 Z M 260.480469 199.585938 " fill-opacity="1" fill-rule="nonzero"/><g clip-path="url(#3c789ab572)"><path fill="#000000" d="M 263.773438 110.144531 C 263.847656 107.128906 262.433594 104.871094 259.957031 103.761719 C 258.378906 103.058594 258.113281 102.296875 258 100.894531 C 257.632812 96.304688 255.019531 92.945312 250.625 91.710938 C 248.503906 91.109375 246.253906 90.710938 244.054688 90.679688 C 229.121094 90.453125 214.183594 90.347656 199.25 90.207031 C 180.105469 90.023438 160.964844 89.816406 141.816406 89.679688 C 137.449219 89.644531 133.074219 89.835938 128.703125 89.9375 C 127.164062 89.972656 125.835938 90.539062 124.613281 91.480469 C 121.773438 93.675781 120.847656 96.597656 121.316406 100.035156 C 121.554688 101.792969 121.902344 103.53125 122.21875 105.382812 C 122.222656 105.40625 122.226562 105.425781 122.226562 105.445312 C 121.265625 105.445312 120.367188 105.476562 119.46875 105.441406 C 117.902344 105.382812 116.332031 105.191406 114.773438 105.25 C 114.03125 105.285156 113.113281 105.589844 112.613281 106.097656 C 111.363281 107.363281 111.140625 108.984375 111.65625 110.699219 C 112.121094 112.253906 113.292969 112.921875 114.785156 113.101562 C 116.007812 113.246094 117.246094 113.289062 118.476562 113.363281 C 119.070312 113.402344 119.679688 113.433594 120.308594 113.46875 C 120.835938 113.355469 121.386719 113.316406 121.941406 113.339844 L 121.941406 122.257812 C 121.085938 122.261719 120.269531 122.28125 119.46875 122.253906 C 117.902344 122.195312 116.332031 122 114.773438 122.0625 C 114.03125 122.09375 113.113281 122.398438 112.613281 122.910156 C 111.363281 124.175781 111.140625 125.796875 111.65625 127.507812 C 112.121094 129.066406 113.292969 129.730469 114.785156 129.910156 C 116.007812 130.058594 117.246094 130.097656 118.476562 130.175781 C 119.070312 130.214844 119.679688 130.246094 120.308594 130.277344 C 120.835938 130.167969 121.386719 130.125 121.941406 130.148438 L 121.941406 139.070312 C 121.085938 139.074219 120.269531 139.09375 119.46875 139.0625 C 117.902344 139.003906 116.332031 138.8125 114.773438 138.875 C 114.03125 138.90625 113.113281 139.210938 112.613281 139.722656 C 111.363281 140.984375 111.140625 142.609375 111.65625 144.320312 C 112.121094 145.875 113.292969 146.542969 114.785156 146.722656 C 116.007812 146.867188 117.246094 146.910156 118.476562 146.988281 C 119.070312 147.027344 119.679688 147.054688 120.308594 147.089844 C 120.835938 146.976562 121.386719 146.9375 121.941406 146.960938 L 121.941406 155.878906 C 121.085938 155.882812 120.269531 155.90625 119.46875 155.875 C 117.902344 155.816406 116.332031 155.625 114.773438 155.683594 C 114.03125 155.71875 113.113281 156.023438 112.613281 156.53125 C 111.363281 157.796875 111.140625 159.417969 111.65625 161.128906 C 112.121094 162.6875 113.292969 163.355469 114.785156 163.535156 C 116.007812 163.679688 117.246094 163.71875 118.476562 163.796875 C 119.070312 163.835938 119.679688 163.867188 120.308594 163.902344 C 120.835938 163.789062 121.386719 163.75 121.941406 163.773438 L 121.941406 172.691406 C 121.085938 172.695312 120.269531 172.714844 119.46875 172.6875 C 117.902344 172.628906 116.332031 172.433594 114.773438 172.496094 C 114.03125 172.527344 113.113281 172.832031 112.613281 173.34375 C 111.363281 174.609375 111.140625 176.230469 111.65625 177.941406 C 112.121094 179.5 113.292969 180.164062 114.785156 180.34375 C 116.007812 180.492188 117.246094 180.53125 118.476562 180.609375 C 119.070312 180.648438 119.679688 180.679688 120.308594 180.710938 C 120.890625 180.589844 121.488281 180.542969 122.097656 180.582031 L 121.941406 180.582031 L 121.941406 189.503906 C 121.085938 189.503906 120.269531 189.527344 119.46875 189.496094 C 117.902344 189.4375 116.332031 189.246094 114.773438 189.304688 C 114.03125 189.339844 113.113281 189.644531 112.613281 190.152344 C 111.363281 191.417969 111.140625 193.042969 111.65625 194.753906 C 112.121094 196.308594 113.292969 196.976562 114.785156 197.15625 C 116.007812 197.300781 117.246094 197.34375 118.476562 197.421875 C 119.070312 197.457031 119.679688 197.488281 120.308594 197.523438 C 120.835938 197.410156 121.386719 197.371094 121.941406 197.394531 L 121.941406 206.3125 C 121.085938 206.316406 120.269531 206.339844 119.46875 206.304688 C 117.902344 206.25 116.332031 206.054688 114.773438 206.117188 C 114.03125 206.152344 113.113281 206.453125 112.613281 206.964844 C 111.363281 208.230469 111.140625 209.851562 111.65625 211.5625 C 112.121094 213.121094 113.292969 213.789062 114.785156 213.964844 C 116.007812 214.113281 117.246094 214.152344 118.476562 214.230469 C 119.070312 214.269531 119.679688 214.300781 120.308594 214.335938 C 120.835938 214.222656 121.386719 214.183594 121.941406 214.207031 L 121.941406 223.125 C 121.085938 223.128906 120.269531 223.148438 119.46875 223.117188 C 117.902344 223.058594 116.332031 222.867188 114.773438 222.929688 C 114.03125 222.960938 113.113281 223.265625 112.613281 223.773438 C 111.363281 225.042969 111.140625 226.664062 111.65625 228.375 C 112.121094 229.929688 113.292969 230.597656 114.785156 230.777344 C 116.007812 230.925781 117.246094 230.964844 118.476562 231.042969 C 119.070312 231.082031 119.679688 231.113281 120.308594 231.144531 C 120.835938 231.03125 121.386719 230.992188 121.941406 231.015625 L 121.941406 239.933594 C 121.085938 239.9375 120.269531 239.957031 119.46875 239.929688 C 117.902344 239.871094 116.332031 239.675781 114.773438 239.742188 C 114.03125 239.773438 113.113281 240.078125 112.613281 240.585938 C 111.363281 241.851562 111.140625 243.476562 111.65625 245.1875 C 112.121094 246.742188 113.292969 247.410156 114.785156 247.589844 C 116.007812 247.734375 117.246094 247.773438 118.476562 247.851562 C 119.070312 247.890625 119.679688 247.921875 120.308594 247.957031 C 120.835938 247.84375 121.386719 247.804688 121.941406 247.824219 L 121.941406 256.746094 C 121.085938 256.75 120.269531 256.769531 119.46875 256.738281 C 117.902344 256.679688 116.332031 256.488281 114.773438 256.550781 C 114.03125 256.582031 113.113281 256.886719 112.613281 257.398438 C 111.363281 258.664062 111.140625 260.285156 111.65625 261.996094 C 112.121094 263.554688 113.292969 264.21875 114.785156 264.398438 C 116.007812 264.546875 117.246094 264.585938 118.476562 264.664062 C 119.070312 264.699219 119.679688 264.734375 120.308594 264.769531 C 120.621094 264.699219 120.941406 264.660156 121.265625 264.640625 C 121.699219 267.144531 122.121094 269.570312 122.503906 271.960938 C 122.914062 274.53125 124.207031 276.5625 126.058594 278.324219 C 126.574219 278.816406 127.226562 279.414062 127.34375 280.046875 C 127.832031 282.828125 129.691406 284.125 132.171875 284.71875 C 133.679688 285.078125 135.25 285.355469 136.789062 285.339844 C 154.53125 285.152344 172.269531 284.917969 190.007812 284.65625 C 208.820312 284.386719 227.632812 284.070312 246.445312 283.785156 C 249.730469 283.734375 252.992188 283.507812 256.300781 284.011719 C 259.945312 284.566406 262.71875 281.878906 262.5625 278.675781 C 262.488281 277.199219 262.757812 275.710938 262.785156 274.222656 C 262.945312 264.890625 263.140625 255.558594 263.210938 246.222656 C 263.40625 218.628906 263.574219 191.03125 263.707031 163.4375 C 263.769531 150.542969 263.714844 137.65625 263.71875 124.765625 C 263.722656 119.890625 263.660156 115.015625 263.773438 110.144531 Z M 256.785156 278.4375 C 255.585938 278.566406 254.632812 278.667969 253.4375 278.792969 C 254.222656 277.890625 254.792969 277.234375 255.507812 276.414062 C 255.9375 277.097656 256.300781 277.675781 256.785156 278.4375 Z M 120.46875 111.503906 C 120.066406 111 119.667969 110.496094 119.183594 109.894531 C 119.070312 110.316406 118.925781 110.832031 118.660156 111.804688 C 118.152344 110.832031 117.820312 110.1875 117.363281 109.308594 C 117.261719 110.113281 117.1875 110.699219 117.058594 111.699219 C 116.582031 110.71875 116.273438 110.085938 115.859375 109.238281 C 115.769531 110.066406 115.707031 110.65625 115.585938 111.785156 C 115.089844 110.730469 114.824219 110.160156 114.425781 109.308594 C 114.316406 110.007812 114.246094 110.46875 114.144531 111.152344 C 112.65625 110.269531 112.714844 109.097656 113 107.890625 C 113.277344 106.714844 114.210938 106.777344 115.15625 106.8125 C 120.667969 107.027344 126.171875 107.210938 131.679688 107.410156 C 132.09375 107.421875 132.515625 107.414062 132.90625 107.519531 C 133.972656 107.800781 134.257812 108.65625 134.234375 109.621094 C 134.203125 110.542969 133.792969 110.9375 132.789062 110.582031 C 132.578125 110.503906 132.144531 111.0625 131.765625 111.367188 C 131.636719 110.910156 131.550781 110.601562 131.394531 110.050781 C 130.988281 110.726562 130.664062 111.265625 130.140625 112.148438 C 130.015625 111.234375 129.941406 110.675781 129.789062 109.523438 C 129.347656 110.679688 129.117188 111.292969 128.691406 112.417969 C 128.460938 111.199219 128.335938 110.546875 128.210938 109.894531 C 128.105469 109.886719 128 109.882812 127.890625 109.878906 C 127.71875 110.558594 127.542969 111.238281 127.371094 111.917969 C 127.226562 111.925781 127.085938 111.933594 126.9375 111.9375 C 126.75 111.21875 126.5625 110.5 126.269531 109.378906 C 126.082031 110.429688 125.960938 111.105469 125.84375 111.78125 C 125.722656 111.804688 125.597656 111.832031 125.476562 111.859375 C 125.246094 111.207031 125.015625 110.558594 124.785156 109.914062 C 124.695312 109.921875 124.605469 109.929688 124.515625 109.9375 C 124.464844 110.53125 124.410156 111.128906 124.359375 111.722656 C 124.234375 111.75 124.105469 111.78125 123.976562 111.808594 C 123.769531 111.308594 123.558594 110.808594 123.332031 110.257812 C 123.121094 110.769531 122.917969 111.253906 122.503906 112.25 C 121.976562 111.273438 121.671875 110.707031 121.417969 110.242188 C 121.132812 110.625 120.800781 111.0625 120.46875 111.503906 Z M 120.46875 128.316406 C 120.066406 127.8125 119.667969 127.308594 119.183594 126.703125 C 119.070312 127.128906 118.925781 127.644531 118.660156 128.617188 C 118.152344 127.640625 117.820312 127 117.363281 126.121094 C 117.261719 126.925781 117.1875 127.507812 117.058594 128.511719 C 116.582031 127.527344 116.273438 126.898438 115.859375 126.050781 C 115.769531 126.875 115.707031 127.464844 115.585938 128.597656 C 115.089844 127.542969 114.824219 126.96875 114.425781 126.121094 C 114.316406 126.820312 114.246094 127.28125 114.144531 127.964844 C 112.65625 127.082031 112.714844 125.90625 113 124.703125 C 113.277344 123.523438 114.210938 123.589844 115.15625 123.625 C 117.421875 123.710938 119.679688 123.789062 121.941406 123.871094 L 121.941406 123.925781 L 123.523438 123.925781 C 126.242188 124.023438 128.960938 124.125 131.679688 124.222656 C 132.09375 124.234375 132.515625 124.222656 132.90625 124.332031 C 133.972656 124.613281 134.257812 125.46875 134.234375 126.433594 C 134.203125 127.355469 133.792969 127.746094 132.789062 127.394531 C 132.578125 127.316406 132.144531 127.875 131.765625 128.179688 C 131.636719 127.722656 131.550781 127.414062 131.394531 126.863281 C 130.988281 127.539062 130.664062 128.074219 130.140625 128.960938 C 130.015625 128.046875 129.941406 127.488281 129.789062 126.335938 C 129.347656 127.492188 129.117188 128.105469 128.691406 129.230469 C 128.460938 128.007812 128.335938 127.355469 128.210938 126.703125 C 128.105469 126.699219 128 126.695312 127.890625 126.691406 C 127.71875 127.371094 127.542969 128.046875 127.371094 128.730469 C 127.226562 128.738281 127.085938 128.746094 126.9375 128.75 C 126.75 128.027344 126.5625 127.3125 126.269531 126.191406 C 126.082031 127.242188 125.960938 127.917969 125.84375 128.59375 C 125.722656 128.617188 125.597656 128.640625 125.476562 128.667969 C 125.246094 128.019531 125.015625 127.371094 124.785156 126.726562 C 124.695312 126.734375 124.605469 126.738281 124.515625 126.75 C 124.464844 127.34375 124.410156 127.9375 124.359375 128.53125 C 124.234375 128.5625 124.105469 128.59375 123.976562 128.621094 C 123.769531 128.117188 123.558594 127.617188 123.332031 127.070312 C 123.121094 127.582031 122.917969 128.066406 122.503906 129.0625 C 121.976562 128.082031 121.671875 127.519531 121.417969 127.050781 C 121.132812 127.4375 120.800781 127.875 120.46875 128.316406 Z M 120.46875 145.125 C 120.066406 144.621094 119.667969 144.121094 119.183594 143.515625 C 119.070312 143.941406 118.925781 144.457031 118.660156 145.425781 C 118.152344 144.453125 117.820312 143.8125 117.363281 142.929688 C 117.261719 143.738281 117.1875 144.320312 117.058594 145.320312 C 116.582031 144.339844 116.273438 143.710938 115.859375 142.863281 C 115.769531 143.6875 115.707031 144.277344 115.585938 145.40625 C 115.089844 144.351562 114.824219 143.78125 114.425781 142.933594 C 114.316406 143.628906 114.246094 144.089844 114.144531 144.777344 C 112.65625 143.894531 112.714844 142.71875 113 141.515625 C 113.277344 140.332031 114.210938 140.398438 115.15625 140.4375 C 117.421875 140.523438 119.679688 140.601562 121.941406 140.683594 L 121.941406 141.011719 L 125.390625 141.011719 L 125.390625 140.808594 C 127.484375 140.882812 129.582031 140.957031 131.679688 141.035156 C 132.09375 141.046875 132.515625 141.035156 132.90625 141.140625 C 133.972656 141.425781 134.257812 142.277344 134.234375 143.242188 C 134.203125 144.164062 133.792969 144.558594 132.789062 144.203125 C 132.578125 144.125 132.144531 144.6875 131.765625 144.988281 C 131.636719 144.53125 131.550781 144.222656 131.394531 143.671875 C 130.988281 144.347656 130.664062 144.886719 130.140625 145.773438 C 130.015625 144.859375 129.941406 144.296875 129.789062 143.144531 C 129.347656 144.300781 129.117188 144.917969 128.691406 146.039062 C 128.460938 144.820312 128.335938 144.164062 128.210938 143.515625 C 128.105469 143.511719 128 143.503906 127.890625 143.5 C 127.71875 144.183594 127.542969 144.859375 127.371094 145.542969 C 127.226562 145.550781 127.085938 145.554688 126.9375 145.5625 C 126.75 144.839844 126.5625 144.121094 126.269531 143 C 126.082031 144.050781 125.960938 144.726562 125.84375 145.402344 C 125.722656 145.425781 125.597656 145.453125 125.476562 145.480469 C 125.246094 144.828125 125.015625 144.183594 124.785156 143.535156 C 124.695312 143.542969 124.605469 143.550781 124.515625 143.558594 C 124.464844 144.152344 124.410156 144.75 124.359375 145.34375 C 124.234375 145.375 124.105469 145.402344 123.976562 145.429688 C 123.769531 144.929688 123.558594 144.429688 123.332031 143.882812 C 123.121094 144.390625 122.917969 144.878906 122.503906 145.871094 C 121.976562 144.894531 121.671875 144.328125 121.417969 143.863281 C 121.132812 144.246094 120.800781 144.6875 120.46875 145.125 Z M 120.46875 161.9375 C 120.066406 161.433594 119.667969 160.929688 119.183594 160.328125 C 119.070312 160.75 118.925781 161.265625 118.660156 162.238281 C 118.152344 161.261719 117.820312 160.621094 117.363281 159.742188 C 117.261719 160.546875 117.1875 161.128906 117.058594 162.132812 C 116.582031 161.148438 116.273438 160.519531 115.859375 159.671875 C 115.769531 160.5 115.707031 161.089844 115.585938 162.214844 C 115.089844 161.164062 114.824219 160.59375 114.425781 159.742188 C 114.316406 160.441406 114.246094 160.902344 114.144531 161.585938 C 112.65625 160.703125 112.714844 159.527344 113 158.328125 C 113.277344 157.144531 114.210938 157.207031 115.15625 157.246094 C 117.421875 157.335938 119.679688 157.414062 121.941406 157.492188 L 121.941406 157.636719 L 125.390625 157.636719 L 125.390625 157.617188 C 127.484375 157.691406 129.582031 157.769531 131.679688 157.84375 C 132.09375 157.855469 132.515625 157.847656 132.90625 157.949219 C 133.972656 158.234375 134.257812 159.089844 134.234375 160.054688 C 134.203125 160.976562 133.792969 161.371094 132.789062 161.015625 C 132.578125 160.9375 132.144531 161.496094 131.765625 161.800781 C 131.636719 161.34375 131.550781 161.035156 131.394531 160.484375 C 130.988281 161.160156 130.664062 161.699219 130.140625 162.582031 C 130.015625 161.667969 129.941406 161.109375 129.789062 159.957031 C 129.347656 161.113281 129.117188 161.726562 128.691406 162.851562 C 128.460938 161.628906 128.335938 160.976562 128.210938 160.328125 C 128.105469 160.320312 128 160.316406 127.890625 160.3125 C 127.71875 160.992188 127.542969 161.671875 127.371094 162.351562 C 127.226562 162.359375 127.085938 162.367188 126.9375 162.371094 C 126.75 161.652344 126.5625 160.933594 126.269531 159.8125 C 126.082031 160.863281 125.960938 161.539062 125.84375 162.214844 C 125.722656 162.238281 125.597656 162.265625 125.476562 162.289062 C 125.246094 161.640625 125.015625 160.992188 124.785156 160.347656 C 124.695312 160.355469 124.605469 160.363281 124.515625 160.371094 C 124.464844 160.964844 124.410156 161.5625 124.359375 162.15625 C 124.234375 162.183594 124.105469 162.214844 123.976562 162.242188 C 123.769531 161.742188 123.558594 161.242188 123.332031 160.691406 C 123.121094 161.203125 122.917969 161.6875 122.503906 162.683594 C 121.976562 161.703125 121.671875 161.140625 121.417969 160.671875 C 121.132812 161.058594 120.800781 161.496094 120.46875 161.9375 Z M 121.417969 177.484375 C 121.132812 177.867188 120.800781 178.308594 120.46875 178.75 C 120.066406 178.246094 119.667969 177.742188 119.183594 177.136719 C 119.070312 177.5625 118.925781 178.078125 118.660156 179.050781 C 118.152344 178.074219 117.820312 177.433594 117.363281 176.550781 C 117.261719 177.359375 117.1875 177.941406 117.058594 178.941406 C 116.582031 177.960938 116.273438 177.332031 115.859375 176.484375 C 115.769531 177.308594 115.707031 177.898438 115.585938 179.027344 C 115.089844 177.972656 114.824219 177.402344 114.425781 176.554688 C 114.316406 177.253906 114.246094 177.714844 114.144531 178.398438 C 112.65625 177.515625 112.714844 176.339844 113 175.136719 C 113.277344 173.957031 114.210938 174.019531 115.15625 174.058594 C 120.667969 174.269531 126.171875 174.453125 131.679688 174.65625 C 132.09375 174.667969 132.515625 174.65625 132.90625 174.761719 C 133.972656 175.046875 134.257812 175.902344 134.234375 176.863281 C 134.203125 177.789062 133.792969 178.179688 132.789062 177.828125 C 132.578125 177.75 132.144531 178.308594 131.765625 178.609375 C 131.636719 178.152344 131.550781 177.847656 131.394531 177.292969 C 130.988281 177.96875 130.664062 178.507812 130.140625 179.394531 C 130.015625 178.480469 129.941406 177.921875 129.789062 176.765625 C 129.347656 177.925781 129.117188 178.539062 128.691406 179.660156 C 128.460938 178.441406 128.335938 177.789062 128.210938 177.136719 C 128.105469 177.128906 128 177.128906 127.890625 177.125 C 127.71875 177.804688 127.542969 178.480469 127.371094 179.164062 C 127.226562 179.171875 127.085938 179.175781 126.9375 179.183594 C 126.75 178.460938 126.5625 177.742188 126.269531 176.625 C 126.082031 177.671875 125.960938 178.347656 125.84375 179.023438 C 125.722656 179.050781 125.597656 179.074219 125.476562 179.101562 C 125.246094 178.453125 125.015625 177.804688 124.785156 177.15625 C 124.695312 177.164062 124.605469 177.171875 124.515625 177.179688 C 124.464844 177.777344 124.410156 178.371094 124.359375 178.964844 C 124.234375 178.996094 124.105469 179.023438 123.976562 179.050781 C 123.769531 178.550781 123.558594 178.050781 123.332031 177.503906 C 123.121094 178.015625 122.917969 178.5 122.503906 179.496094 C 121.976562 178.515625 121.671875 177.949219 121.417969 177.484375 Z M 120.46875 195.558594 C 120.066406 195.054688 119.667969 194.554688 119.183594 193.949219 C 119.070312 194.375 118.925781 194.890625 118.660156 195.859375 C 118.152344 194.886719 117.820312 194.246094 117.363281 193.363281 C 117.261719 194.167969 117.1875 194.753906 117.058594 195.753906 C 116.582031 194.769531 116.273438 194.144531 115.859375 193.296875 C 115.769531 194.121094 115.707031 194.710938 115.585938 195.839844 C 115.089844 194.785156 114.824219 194.214844 114.425781 193.367188 C 114.316406 194.0625 114.246094 194.523438 114.144531 195.207031 C 112.65625 194.324219 112.714844 193.152344 113 191.949219 C 113.277344 190.765625 114.210938 190.832031 115.15625 190.871094 C 120.667969 191.082031 126.171875 191.265625 131.679688 191.46875 C 132.09375 191.480469 132.515625 191.46875 132.90625 191.574219 C 133.972656 191.859375 134.257812 192.710938 134.234375 193.675781 C 134.203125 194.597656 133.792969 194.992188 132.789062 194.636719 C 132.578125 194.5625 132.144531 195.121094 131.765625 195.421875 C 131.636719 194.964844 131.550781 194.65625 131.394531 194.105469 C 130.988281 194.78125 130.664062 195.320312 130.140625 196.207031 C 130.015625 195.292969 129.941406 194.730469 129.789062 193.578125 C 129.347656 194.738281 129.117188 195.351562 128.691406 196.472656 C 128.460938 195.253906 128.335938 194.601562 128.210938 193.949219 C 128.105469 193.941406 128 193.9375 127.890625 193.933594 C 127.71875 194.613281 127.542969 195.292969 127.371094 195.976562 C 127.226562 195.984375 127.085938 195.988281 126.9375 195.996094 C 126.75 195.273438 126.5625 194.554688 126.269531 193.433594 C 126.082031 194.484375 125.960938 195.160156 125.84375 195.835938 C 125.722656 195.859375 125.597656 195.886719 125.476562 195.914062 C 125.246094 195.261719 125.015625 194.613281 124.785156 193.96875 C 124.695312 193.976562 124.605469 193.984375 124.515625 193.992188 C 124.464844 194.585938 124.410156 195.183594 124.359375 195.777344 C 124.234375 195.808594 124.105469 195.835938 123.976562 195.863281 C 123.769531 195.363281 123.558594 194.863281 123.332031 194.3125 C 123.121094 194.824219 122.917969 195.3125 122.503906 196.304688 C 121.976562 195.328125 121.671875 194.761719 121.417969 194.296875 C 121.132812 194.679688 120.800781 195.121094 120.46875 195.558594 Z M 120.46875 212.371094 C 120.066406 211.867188 119.667969 211.363281 119.183594 210.761719 C 119.070312 211.183594 118.925781 211.699219 118.660156 212.671875 C 118.152344 211.695312 117.820312 211.054688 117.363281 210.171875 C 117.261719 210.980469 117.1875 211.5625 117.058594 212.566406 C 116.582031 211.582031 116.273438 210.953125 115.859375 210.105469 C 115.769531 210.929688 115.707031 211.519531 115.585938 212.648438 C 115.089844 211.597656 114.824219 211.027344 114.425781 210.175781 C 114.316406 210.875 114.246094 211.335938 114.144531 212.019531 C 112.65625 211.136719 112.714844 209.960938 113 208.757812 C 113.277344 207.578125 114.210938 207.640625 115.15625 207.679688 C 120.667969 207.890625 126.171875 208.078125 131.679688 208.277344 C 132.09375 208.289062 132.515625 208.28125 132.90625 208.382812 C 133.972656 208.667969 134.257812 209.523438 134.234375 210.488281 C 134.203125 211.410156 133.792969 211.804688 132.789062 211.449219 C 132.578125 211.371094 132.144531 211.929688 131.765625 212.230469 C 131.636719 211.773438 131.550781 211.46875 131.394531 210.914062 C 130.988281 211.59375 130.664062 212.128906 130.140625 213.015625 C 130.015625 212.101562 129.941406 211.542969 129.789062 210.390625 C 129.347656 211.546875 129.117188 212.160156 128.691406 213.285156 C 128.460938 212.0625 128.335938 211.410156 128.210938 210.761719 C 128.105469 210.753906 128 210.75 127.890625 210.746094 C 127.71875 211.425781 127.542969 212.105469 127.371094 212.785156 C 127.226562 212.792969 127.085938 212.800781 126.9375 212.804688 C 126.75 212.082031 126.5625 211.367188 126.269531 210.246094 C 126.082031 211.296875 125.960938 211.972656 125.84375 212.644531 C 125.722656 212.671875 125.597656 212.699219 125.476562 212.722656 C 125.246094 212.074219 125.015625 211.425781 124.785156 210.78125 C 124.695312 210.789062 124.605469 210.796875 124.515625 210.800781 C 124.464844 211.398438 124.410156 211.996094 124.359375 212.589844 C 124.234375 212.617188 124.105469 212.644531 123.976562 212.675781 C 123.769531 212.175781 123.558594 211.675781 123.332031 211.125 C 123.121094 211.636719 122.917969 212.121094 122.503906 213.117188 C 121.976562 212.136719 121.671875 211.574219 121.417969 211.105469 C 121.132812 211.488281 120.800781 211.929688 120.46875 212.371094 Z M 120.46875 229.179688 C 120.066406 228.679688 119.667969 228.175781 119.183594 227.570312 C 119.070312 227.996094 118.925781 228.511719 118.660156 229.480469 C 118.152344 228.507812 117.820312 227.867188 117.363281 226.984375 C 117.261719 227.789062 117.1875 228.375 117.058594 229.375 C 116.582031 228.394531 116.273438 227.765625 115.859375 226.917969 C 115.769531 227.742188 115.707031 228.332031 115.585938 229.460938 C 115.089844 228.40625 114.824219 227.835938 114.425781 226.988281 C 114.316406 227.683594 114.246094 228.148438 114.144531 228.832031 C 112.65625 227.949219 112.714844 226.773438 113 225.570312 C 113.277344 224.390625 114.210938 224.453125 115.15625 224.492188 C 120.667969 224.703125 126.171875 224.886719 131.679688 225.089844 C 132.09375 225.101562 132.515625 225.089844 132.90625 225.195312 C 133.972656 225.480469 134.257812 226.335938 134.234375 227.296875 C 134.203125 228.222656 133.792969 228.613281 132.789062 228.261719 C 132.578125 228.183594 132.144531 228.742188 131.765625 229.042969 C 131.636719 228.585938 131.550781 228.277344 131.394531 227.726562 C 130.988281 228.402344 130.664062 228.941406 130.140625 229.828125 C 130.015625 228.914062 129.941406 228.351562 129.789062 227.199219 C 129.347656 228.359375 129.117188 228.972656 128.691406 230.097656 C 128.460938 228.875 128.335938 228.222656 128.210938 227.570312 C 128.105469 227.566406 128 227.5625 127.890625 227.558594 C 127.71875 228.238281 127.542969 228.914062 127.371094 229.597656 C 127.226562 229.605469 127.085938 229.609375 126.9375 229.617188 C 126.75 228.894531 126.5625 228.175781 126.269531 227.058594 C 126.082031 228.105469 125.960938 228.78125 125.84375 229.457031 C 125.722656 229.480469 125.597656 229.507812 125.476562 229.535156 C 125.246094 228.882812 125.015625 228.238281 124.785156 227.589844 C 124.695312 227.597656 124.605469 227.605469 124.515625 227.613281 C 124.464844 228.207031 124.410156 228.804688 124.359375 229.398438 C 124.234375 229.429688 124.105469 229.457031 123.976562 229.484375 C 123.769531 228.984375 123.558594 228.484375 123.332031 227.9375 C 123.121094 228.449219 122.917969 228.933594 122.503906 229.925781 C 121.976562 228.949219 121.671875 228.382812 121.417969 227.917969 C 121.132812 228.300781 120.800781 228.742188 120.46875 229.179688 Z M 120.46875 245.992188 C 120.066406 245.488281 119.667969 244.984375 119.183594 244.382812 C 119.070312 244.808594 118.925781 245.324219 118.660156 246.292969 C 118.152344 245.320312 117.820312 244.679688 117.363281 243.796875 C 117.261719 244.601562 117.1875 245.1875 117.058594 246.1875 C 116.582031 245.203125 116.273438 244.578125 115.859375 243.726562 C 115.769531 244.550781 115.707031 245.140625 115.585938 246.273438 C 115.089844 245.21875 114.824219 244.648438 114.425781 243.796875 C 114.316406 244.496094 114.246094 244.957031 114.144531 245.640625 C 112.65625 244.757812 112.714844 243.585938 113 242.382812 C 113.277344 241.199219 114.210938 241.265625 115.15625 241.300781 C 120.667969 241.515625 126.171875 241.699219 131.679688 241.898438 C 132.09375 241.914062 132.515625 241.902344 132.90625 242.007812 C 133.972656 242.289062 134.257812 243.148438 134.234375 244.109375 C 134.203125 245.03125 133.792969 245.425781 132.789062 245.070312 C 132.578125 244.992188 132.144531 245.554688 131.765625 245.855469 C 131.636719 245.398438 131.550781 245.089844 131.394531 244.539062 C 130.988281 245.214844 130.664062 245.75 130.140625 246.640625 C 130.015625 245.726562 129.941406 245.164062 129.789062 244.011719 C 129.347656 245.167969 129.117188 245.785156 128.691406 246.90625 C 128.460938 245.6875 128.335938 245.035156 128.210938 244.382812 C 128.105469 244.375 128 244.371094 127.890625 244.367188 C 127.71875 245.046875 127.542969 245.726562 127.371094 246.410156 C 127.226562 246.414062 127.085938 246.421875 126.9375 246.425781 C 126.75 245.707031 126.5625 244.988281 126.269531 243.867188 C 126.082031 244.917969 125.960938 245.59375 125.84375 246.269531 C 125.722656 246.292969 125.597656 246.320312 125.476562 246.34375 C 125.246094 245.695312 125.015625 245.046875 124.785156 244.402344 C 124.695312 244.410156 124.605469 244.417969 124.515625 244.425781 C 124.464844 245.019531 124.410156 245.617188 124.359375 246.210938 C 124.234375 246.242188 124.105469 246.269531 123.976562 246.296875 C 123.769531 245.796875 123.558594 245.292969 123.332031 244.746094 C 123.121094 245.257812 122.917969 245.742188 122.503906 246.738281 C 121.976562 245.761719 121.671875 245.195312 121.417969 244.730469 C 121.132812 245.113281 120.800781 245.554688 120.46875 245.992188 Z M 119.183594 261.191406 C 119.070312 261.617188 118.925781 262.132812 118.660156 263.105469 C 118.152344 262.128906 117.820312 261.488281 117.363281 260.605469 C 117.261719 261.414062 117.1875 261.996094 117.058594 263 C 116.582031 262.015625 116.273438 261.386719 115.859375 260.539062 C 115.769531 261.363281 115.707031 261.953125 115.585938 263.082031 C 115.089844 262.03125 114.824219 261.457031 114.425781 260.609375 C 114.316406 261.308594 114.246094 261.769531 114.144531 262.453125 C 112.65625 261.570312 112.714844 260.394531 113 259.191406 C 113.277344 258.011719 114.210938 258.074219 115.15625 258.113281 C 120.667969 258.324219 126.171875 258.511719 131.679688 258.710938 C 132.09375 258.722656 132.515625 258.710938 132.90625 258.816406 C 133.972656 259.101562 134.257812 259.957031 134.234375 260.921875 C 134.203125 261.839844 133.792969 262.234375 132.789062 261.882812 C 132.578125 261.804688 132.144531 262.363281 131.765625 262.664062 C 131.636719 262.207031 131.550781 261.902344 131.394531 261.347656 C 130.988281 262.023438 130.664062 262.5625 130.140625 263.449219 C 130.085938 263.066406 130.046875 262.75 130.003906 262.421875 C 130.003906 262.421875 130.003906 262.421875 130.007812 262.417969 C 130.003906 262.417969 130.003906 262.417969 130.003906 262.417969 C 129.941406 261.964844 129.878906 261.492188 129.789062 260.820312 C 129.535156 261.492188 129.347656 261.984375 129.15625 262.496094 C 128.925781 262.519531 128.699219 262.542969 128.472656 262.558594 C 128.371094 262.015625 128.289062 261.597656 128.210938 261.191406 C 128.105469 261.1875 128 261.183594 127.890625 261.179688 C 127.71875 261.859375 127.542969 262.535156 127.371094 263.214844 C 127.371094 263.214844 127.367188 263.214844 127.367188 263.21875 C 127.226562 263.226562 127.082031 263.230469 126.9375 263.238281 C 126.75 262.515625 126.5625 261.800781 126.269531 260.679688 C 126.082031 261.730469 125.960938 262.40625 125.84375 263.078125 C 125.722656 263.105469 125.597656 263.128906 125.476562 263.15625 C 125.246094 262.507812 125.015625 261.859375 124.785156 261.214844 C 124.695312 261.222656 124.605469 261.230469 124.515625 261.234375 C 124.464844 261.832031 124.410156 262.429688 124.359375 263.019531 C 124.296875 263.035156 124.230469 263.050781 124.167969 263.0625 C 124.175781 262.914062 124.179688 262.785156 124.1875 262.628906 C 124.046875 262.625 123.90625 262.601562 123.761719 262.59375 C 123.621094 262.257812 123.484375 261.925781 123.332031 261.558594 C 123.210938 261.851562 123.085938 262.148438 122.929688 262.527344 C 122.585938 262.503906 122.246094 262.476562 121.902344 262.441406 C 121.710938 262.082031 121.554688 261.792969 121.417969 261.539062 C 121.132812 261.921875 120.800781 262.363281 120.46875 262.804688 C 120.066406 262.300781 119.667969 261.796875 119.183594 261.191406 Z M 128.75 263.566406 C 128.730469 263.621094 128.710938 263.660156 128.691406 263.71875 C 128.6875 263.6875 128.683594 263.667969 128.675781 263.636719 C 128.703125 263.613281 128.726562 263.589844 128.75 263.566406 Z M 124.0625 265.324219 C 124.066406 265.230469 124.074219 265.125 124.078125 265.027344 L 125.25 265.050781 C 125.03125 265.238281 124.808594 265.429688 124.59375 265.613281 C 124.417969 265.515625 124.242188 265.417969 124.0625 265.324219 Z M 125.601562 269.453125 C 124.726562 268.101562 124.738281 267.121094 125.972656 266.152344 C 126.433594 265.792969 126.871094 265.398438 127.300781 264.996094 C 128.457031 264.910156 129.605469 264.90625 130.746094 265.003906 C 130.886719 265.011719 131.011719 264.996094 131.148438 265.003906 C 129.285156 266.425781 127.546875 268.046875 125.601562 269.453125 Z M 127.921875 274.894531 C 127.367188 274.136719 126.917969 273.574219 126.523438 272.976562 C 125.867188 271.996094 126.03125 271.214844 126.953125 270.398438 C 128.984375 268.59375 130.9375 266.6875 132.902344 264.800781 C 132.90625 264.800781 132.90625 264.796875 132.90625 264.796875 C 133.730469 264.546875 134.46875 264.074219 135.101562 263.246094 C 136.117188 261.894531 136.207031 260.535156 135.574219 259.0625 C 134.980469 257.6875 133.835938 257.121094 132.410156 257.09375 C 131.007812 257.066406 129.605469 257.113281 128.203125 257.121094 C 127.316406 257.128906 126.410156 257.125 125.390625 257.125 L 125.390625 248.242188 L 126.253906 248.257812 C 127.769531 248.042969 129.257812 248.066406 130.746094 248.191406 C 132.507812 248.339844 133.964844 247.933594 135.101562 246.433594 C 136.117188 245.085938 136.207031 243.722656 135.574219 242.253906 C 134.980469 240.875 133.835938 240.308594 132.410156 240.28125 C 131.007812 240.257812 129.605469 240.304688 128.203125 240.3125 C 127.316406 240.316406 126.410156 240.316406 125.390625 240.316406 L 125.390625 231.429688 L 126.253906 231.449219 C 127.769531 231.234375 129.257812 231.253906 130.746094 231.382812 C 132.507812 231.527344 133.964844 231.121094 135.101562 229.621094 C 136.117188 228.273438 136.207031 226.910156 135.574219 225.441406 C 134.980469 224.0625 133.835938 223.5 132.410156 223.472656 C 131.007812 223.445312 129.605469 223.492188 128.203125 223.5 C 127.316406 223.503906 126.410156 223.503906 125.390625 223.503906 L 125.390625 214.621094 L 126.253906 214.636719 C 127.769531 214.421875 129.257812 214.445312 130.746094 214.570312 C 132.507812 214.714844 133.964844 214.308594 135.101562 212.8125 C 136.117188 211.460938 136.207031 210.101562 135.574219 208.628906 C 134.980469 207.253906 133.835938 206.6875 132.410156 206.660156 C 131.007812 206.632812 129.605469 206.679688 128.203125 206.6875 C 127.316406 206.695312 126.410156 206.691406 125.390625 206.691406 L 125.390625 197.808594 L 126.253906 197.828125 C 127.769531 197.609375 129.257812 197.632812 130.746094 197.757812 C 132.507812 197.90625 133.964844 197.5 135.101562 196 C 136.117188 194.652344 136.207031 193.289062 135.574219 191.820312 C 134.980469 190.441406 133.835938 189.875 132.410156 189.847656 C 131.007812 189.824219 129.605469 189.871094 128.203125 189.878906 C 127.316406 189.882812 126.410156 189.882812 125.390625 189.882812 L 125.390625 181 L 126.253906 181.015625 C 127.769531 180.800781 129.257812 180.820312 130.746094 180.949219 C 132.507812 181.09375 133.964844 180.6875 135.101562 179.1875 C 136.117188 177.839844 136.207031 176.476562 135.574219 175.007812 C 134.980469 173.628906 133.835938 173.066406 132.410156 173.039062 C 131.007812 173.011719 129.605469 173.058594 128.203125 173.066406 C 127.316406 173.070312 126.410156 173.070312 125.390625 173.070312 L 125.390625 164.1875 L 126.253906 164.203125 C 127.769531 163.988281 129.257812 164.011719 130.746094 164.136719 C 132.507812 164.285156 133.964844 163.875 135.101562 162.378906 C 136.117188 161.027344 136.207031 159.667969 135.574219 158.195312 C 134.980469 156.820312 133.835938 156.253906 132.410156 156.226562 C 131.007812 156.199219 129.605469 156.25 128.203125 156.253906 C 127.316406 156.261719 126.410156 156.257812 125.390625 156.257812 L 125.390625 147.375 L 126.253906 147.394531 C 127.769531 147.179688 129.257812 147.199219 130.746094 147.324219 C 132.507812 147.472656 133.964844 147.066406 135.101562 145.566406 C 136.117188 144.21875 136.207031 142.855469 135.574219 141.386719 C 134.980469 140.007812 133.835938 139.441406 132.410156 139.417969 C 131.007812 139.390625 129.605469 139.4375 128.203125 139.445312 C 127.316406 139.449219 126.410156 139.449219 125.390625 139.449219 L 125.390625 130.566406 L 126.253906 130.582031 C 127.769531 130.367188 129.257812 130.390625 130.746094 130.511719 C 132.507812 130.660156 133.964844 130.253906 135.101562 128.753906 C 136.117188 127.40625 136.207031 126.046875 135.574219 124.574219 C 134.980469 123.195312 133.835938 122.632812 132.410156 122.605469 C 131.007812 122.578125 129.605469 122.625 128.203125 122.632812 C 127.316406 122.640625 126.410156 122.636719 125.390625 122.636719 L 125.390625 113.753906 L 126.253906 113.769531 C 127.769531 113.554688 129.257812 113.578125 130.746094 113.703125 C 132.507812 113.851562 133.964844 113.441406 135.101562 111.945312 C 136.117188 110.597656 136.207031 109.234375 135.574219 107.765625 C 134.980469 106.386719 133.835938 105.820312 132.410156 105.792969 C 131.007812 105.765625 129.605469 105.816406 128.203125 105.824219 C 127.222656 105.828125 126.246094 105.824219 125.085938 105.824219 C 124.871094 102.761719 124.113281 99.96875 124.644531 97.078125 C 125.035156 94.980469 126.296875 93.507812 128.101562 92.5 C 128.5625 92.242188 129.195312 92.167969 129.746094 92.1875 C 136.582031 92.398438 143.417969 92.765625 150.257812 92.855469 C 176.417969 93.210938 202.574219 93.46875 228.734375 93.769531 C 233.601562 93.824219 238.46875 93.894531 243.335938 93.988281 C 244.195312 94.003906 245.054688 94.171875 246.027344 94.546875 C 240.394531 100.625 234.511719 106.304688 229.347656 112.65625 C 236.074219 107.242188 241.921875 100.890625 248.289062 94.878906 C 249.320312 95.3125 250.289062 95.71875 251.582031 96.261719 C 246.96875 101.21875 242.519531 106 238.066406 110.78125 C 238.203125 110.914062 238.335938 111.046875 238.476562 111.179688 C 243.320312 106.964844 247.46875 102.023438 252.316406 97.351562 C 252.863281 98.300781 253.363281 99.171875 253.894531 100.09375 C 250.878906 103.898438 247.964844 107.574219 245.054688 111.246094 C 245.179688 111.363281 245.308594 111.472656 245.433594 111.589844 C 248.382812 108.855469 250.738281 105.550781 253.496094 102.566406 C 254.574219 104.925781 254.460938 106.484375 253.144531 108.242188 C 251.070312 111.019531 248.992188 113.792969 246.925781 116.578125 C 246.609375 117.007812 246.363281 117.492188 246.085938 117.949219 C 246.222656 118.050781 246.359375 118.152344 246.492188 118.253906 C 248.988281 115.273438 251.484375 112.296875 254.289062 108.953125 C 254.507812 111.707031 254.769531 113.703125 252.945312 115.894531 C 248.886719 120.769531 245.28125 126.027344 241.5 131.136719 C 241.328125 131.371094 241.222656 131.652344 241.242188 132.023438 C 245.972656 127.503906 249.90625 122.300781 254.1875 117.101562 C 254.359375 117.636719 254.472656 117.847656 254.480469 118.066406 C 254.507812 118.722656 254.503906 119.386719 254.503906 120.046875 C 254.539062 142.523438 254.5625 165 254.609375 187.476562 C 254.648438 206.648438 254.710938 225.820312 254.765625 244.992188 C 254.789062 252.097656 254.855469 259.203125 254.8125 266.3125 C 254.792969 269.265625 253.671875 271.953125 252.003906 274.332031 C 250.71875 276.164062 248.933594 277.0625 246.519531 277.082031 C 231.417969 277.191406 216.316406 277.394531 201.214844 277.644531 C 187.851562 277.867188 174.484375 278.1875 161.117188 278.457031 C 160.296875 278.472656 159.480469 278.460938 158.480469 278.460938 C 158.808594 276.5 160.828125 275.878906 161.128906 274.011719 C 160.179688 274.957031 159.144531 275.828125 158.308594 276.863281 C 157.214844 278.207031 155.914062 278.75 154.207031 278.570312 C 153.25 278.472656 152.269531 278.554688 150.71875 278.554688 C 153.867188 275.492188 156.628906 272.804688 159.390625 270.113281 C 159.261719 269.964844 159.128906 269.820312 158.996094 269.671875 C 155.96875 272.027344 152.757812 274.191406 149.964844 276.808594 C 147.953125 278.699219 145.910156 279.011719 143.460938 278.488281 C 143.488281 278.464844 143.519531 278.433594 143.550781 278.410156 C 141.167969 279.214844 138.75 278.796875 136.234375 278.652344 C 142.699219 272.566406 149.066406 266.484375 155.136719 260.101562 C 155.007812 259.960938 154.878906 259.820312 154.75 259.675781 C 147.773438 265.679688 140.796875 271.679688 133.570312 277.890625 C 132.570312 277.539062 131.378906 277.113281 130.550781 276.820312 C 139.542969 267.5 148.507812 258.210938 157.46875 248.925781 C 147.308594 257.109375 137.605469 265.828125 127.921875 274.894531 Z M 262.238281 199.449219 C 262.164062 217.375 261.917969 235.300781 261.621094 253.222656 C 261.488281 261.558594 261.0625 269.890625 260.765625 278.226562 C 260.679688 280.628906 259.332031 281.980469 256.875 282.035156 C 253.328125 282.117188 249.785156 282.15625 246.234375 282.195312 C 232.289062 282.332031 218.347656 282.410156 204.402344 282.605469 C 188.480469 282.828125 172.5625 283.15625 156.640625 283.445312 C 150.125 283.5625 143.609375 283.707031 137.089844 283.824219 C 134.511719 283.871094 132.582031 282.171875 130.214844 281.644531 C 130.308594 281.492188 130.410156 281.339844 130.507812 281.1875 C 138.824219 281.1875 147.144531 281.226562 155.464844 281.179688 C 165.613281 281.121094 175.761719 281.023438 185.914062 280.902344 C 203.402344 280.6875 220.894531 280.476562 238.378906 280.191406 C 244.308594 280.097656 250.230469 279.792969 256.15625 279.601562 C 257.285156 279.5625 258.410156 279.59375 259.726562 279.59375 L 259.726562 252.570312 C 258.636719 253.707031 258.933594 254.726562 258.925781 255.613281 C 258.855469 261.972656 258.835938 268.335938 258.792969 274.695312 C 258.789062 275.503906 258.792969 276.316406 258.601562 277.15625 C 257.4375 275.867188 256.40625 274.640625 257.15625 272.675781 C 257.5 271.792969 257.433594 270.730469 257.4375 269.742188 C 257.46875 253.054688 257.476562 236.367188 257.5 219.679688 C 257.511719 210.921875 257.542969 202.164062 257.566406 193.40625 C 257.601562 178.535156 257.628906 163.664062 257.675781 148.792969 C 257.710938 136.894531 257.777344 125 257.824219 113.105469 C 257.832031 110.992188 257.824219 108.878906 257.824219 106.34375 C 259.707031 107.792969 260.570312 108.984375 260.527344 111.21875 C 260.335938 120.546875 260.445312 129.878906 260.820312 139.222656 C 261.117188 129.308594 261.421875 119.402344 261.722656 109.492188 C 261.894531 109.484375 262.066406 109.480469 262.234375 109.472656 C 262.277344 110.21875 262.351562 110.960938 262.351562 111.707031 C 262.324219 140.953125 262.359375 170.203125 262.238281 199.449219 Z M 262.238281 199.449219 " fill-opacity="1" fill-rule="nonzero"/></g></svg>