<svg xmlns="http://www.w3.org/2000/svg" xmlns:xlink="http://www.w3.org/1999/xlink" width="500" zoomAndPan="magnify" viewBox="0 0 375 374.999991" height="500" preserveAspectRatio="xMidYMid meet" version="1.0"><defs><clipPath id="2b4a098803"><path d="M 64 45 L 341.25 45 L 341.25 370.464844 L 64 370.464844 Z M 64 45 " clip-rule="nonzero"/></clipPath><clipPath id="6f4188e286"><path d="M 34 4.464844 L 319 4.464844 L 319 142 L 34 142 Z M 34 4.464844 " clip-rule="nonzero"/></clipPath></defs><rect x="-37.5" width="450" fill="#ffffff" y="-37.499999" height="449.999989" fill-opacity="1"/><rect x="-37.5" width="450" fill="#ffffff" y="-37.499999" height="449.999989" fill-opacity="1"/><rect x="-37.5" width="450" fill="#ffffff" y="-37.499999" height="449.999989" fill-opacity="1"/><path fill="#f1bc0d" d="M 75.550781 268.117188 C 73.195312 243.292969 71.285156 218.433594 69.8125 193.546875 C 68.464844 170.625 67.488281 147.671875 67.355469 124.710938 C 67.292969 113.238281 67.433594 101.769531 67.355469 90.292969 C 67.292969 81.152344 67.140625 71.703125 70.632812 63.253906 C 72.519531 58.691406 75.519531 54.484375 79.648438 51.78125 C 83.070312 49.542969 87.117188 48.421875 91.175781 47.9375 C 95.230469 47.460938 99.335938 47.59375 103.417969 47.683594 C 123.359375 48.132812 143.308594 47.59375 163.25 47.683594 C 196.425781 47.835938 229.578125 49.730469 262.75 49.621094 C 269.511719 49.601562 276.273438 49.496094 283.035156 49.621094 C 292.15625 49.792969 301.285156 50.386719 310.273438 51.941406 C 313.792969 52.550781 317.3125 53.3125 320.625 54.652344 C 323.9375 55.988281 327.058594 57.9375 329.398438 60.632812 C 332.261719 63.929688 333.820312 68.1875 334.546875 72.488281 C 335.273438 76.796875 335.21875 81.1875 335.195312 85.546875 C 335.070312 106.992188 335.703125 128.429688 336.351562 149.867188 C 337.03125 172.078125 337.730469 194.285156 338.09375 216.503906 C 338.316406 230.425781 338.40625 244.355469 338.566406 258.285156 C 338.710938 271.394531 338.914062 284.507812 338.566406 297.613281 C 338.203125 311.128906 337.238281 324.738281 333.648438 337.769531 C 331.800781 344.46875 329.074219 351.261719 323.8125 355.800781 C 320.550781 358.605469 316.503906 360.371094 312.332031 361.4375 C 308.164062 362.5 303.859375 362.894531 299.570312 363.21875 C 285.054688 364.324219 270.488281 364.679688 255.933594 364.910156 C 225.855469 365.390625 195.769531 365.359375 165.707031 366.445312 C 153.507812 366.894531 141.316406 367.519531 129.117188 367.949219 C 124.457031 368.113281 119.785156 368.246094 115.148438 367.769531 C 110.511719 367.289062 105.890625 366.1875 101.777344 363.992188 C 96.597656 361.226562 92.394531 356.796875 89.484375 351.695312 C 84.152344 342.359375 83.160156 331.257812 82.109375 320.558594 C 80.386719 303.023438 78.199219 285.53125 75.550781 268.113281 L 75.550781 268.117188 " fill-opacity="1" fill-rule="nonzero"/><path fill="#f1bc0d" d="M 274.433594 6.957031 C 269.285156 6.835938 264.105469 7.054688 258.96875 7.261719 C 226.261719 8.582031 193.367188 9.238281 161.203125 15.320312 C 143.160156 18.726562 125.472656 23.824219 107.929688 29.246094 C 102.933594 30.792969 97.921875 32.371094 93.191406 34.59375 C 88.460938 36.816406 83.984375 39.714844 80.476562 43.585938 C 76.492188 47.980469 73.941406 53.539062 72.640625 59.332031 C 74.433594 56.347656 76.746094 53.675781 79.652344 51.777344 C 83.074219 49.539062 87.117188 48.425781 91.171875 47.945312 C 95.230469 47.464844 99.339844 47.59375 103.421875 47.683594 C 123.363281 48.136719 143.308594 47.59375 163.253906 47.683594 C 196.425781 47.828125 229.574219 49.726562 262.746094 49.621094 C 269.507812 49.605469 276.269531 49.496094 283.03125 49.621094 C 292.152344 49.796875 301.285156 50.390625 310.269531 51.945312 C 312.277344 52.289062 314.277344 52.722656 316.246094 53.25 C 316.476562 50.734375 316.277344 48.148438 315.960938 45.628906 C 315.15625 39.480469 313.761719 33.390625 311.519531 27.605469 C 309.8125 23.226562 307.566406 18.949219 304.144531 15.722656 C 300.203125 12.007812 294.976562 9.933594 289.703125 8.707031 C 284.691406 7.546875 279.578125 7.082031 274.433594 6.957031 " fill-opacity="1" fill-rule="nonzero"/><path fill="#f4f5f5" d="M 248.910156 21.433594 C 221.226562 21.308594 193.722656 25.6875 166.535156 30.886719 C 151.910156 33.683594 137.308594 36.71875 123.085938 41.125 C 116.851562 43.058594 110.707031 45.257812 104.65625 47.703125 C 124.183594 48.101562 143.71875 47.59375 163.253906 47.683594 C 196.425781 47.828125 229.574219 49.726562 262.746094 49.621094 C 269.507812 49.605469 276.269531 49.496094 283.03125 49.621094 C 286.433594 49.691406 289.84375 49.890625 293.242188 50.101562 C 293.019531 47.746094 292.398438 45.445312 291.699219 43.183594 C 290.515625 39.300781 289.199219 35.371094 286.78125 32.113281 C 284.492188 29.03125 281.289062 26.683594 277.765625 25.148438 C 273.894531 23.464844 269.671875 22.75 265.472656 22.285156 C 259.976562 21.671875 254.441406 21.460938 248.910156 21.4375 L 248.910156 21.433594 " fill-opacity="1" fill-rule="nonzero"/><path fill="#ecb20e" d="M 314.484375 52.808594 C 324.464844 124.019531 319.152344 197.34375 298.878906 266.335938 C 295.839844 276.6875 292.445312 286.992188 287.554688 296.613281 C 282.664062 306.238281 276.21875 315.195312 267.796875 321.941406 C 254.191406 332.847656 236.601562 337.207031 219.53125 340.757812 C 185.101562 347.921875 149.910156 353.011719 114.832031 350.574219 C 105.578125 349.929688 96.367188 348.699219 87.246094 347.015625 C 87.902344 348.613281 88.625 350.183594 89.488281 351.695312 C 92.398438 356.796875 96.601562 361.222656 101.777344 363.988281 C 105.890625 366.183594 110.507812 367.289062 115.144531 367.765625 C 119.78125 368.246094 124.457031 368.113281 129.117188 367.953125 C 141.316406 367.523438 153.511719 366.894531 165.710938 366.449219 C 195.769531 365.359375 225.859375 365.394531 255.933594 364.910156 C 270.492188 364.683594 285.058594 364.332031 299.574219 363.222656 C 303.863281 362.898438 308.167969 362.503906 312.335938 361.4375 C 316.503906 360.371094 320.550781 358.605469 323.808594 355.800781 C 329.074219 351.265625 331.800781 344.464844 333.644531 337.769531 C 337.234375 324.734375 338.203125 311.132812 338.566406 297.621094 C 338.914062 284.515625 338.707031 271.398438 338.566406 258.285156 C 338.402344 244.359375 338.320312 230.421875 338.09375 216.5 C 337.734375 194.28125 337.03125 172.082031 336.351562 149.875 C 335.699219 128.4375 335.070312 106.992188 335.191406 85.546875 C 335.207031 81.1875 335.28125 76.796875 334.542969 72.488281 C 333.820312 68.1875 332.253906 63.929688 329.394531 60.632812 C 327.050781 57.9375 323.933594 55.992188 320.621094 54.652344 C 318.636719 53.851562 316.570312 53.289062 314.484375 52.808594 " fill-opacity="1" fill-rule="nonzero"/><path fill="#e9eaea" d="M 248.910156 21.433594 C 237.3125 21.382812 225.75 22.148438 214.222656 23.40625 C 223.863281 25.664062 233.570312 27.628906 243.328125 29.265625 C 247.398438 29.949219 251.492188 30.582031 255.40625 31.875 C 259.328125 33.171875 263.097656 35.183594 265.878906 38.234375 C 268.699219 41.324219 270.324219 45.445312 270.503906 49.621094 C 274.683594 49.605469 278.855469 49.550781 283.03125 49.621094 C 286.433594 49.691406 289.84375 49.890625 293.242188 50.101562 C 293.019531 47.746094 292.398438 45.445312 291.699219 43.179688 C 290.515625 39.300781 289.199219 35.371094 286.78125 32.113281 C 284.492188 29.03125 281.289062 26.679688 277.765625 25.148438 C 273.894531 23.460938 269.671875 22.75 265.472656 22.285156 C 259.976562 21.671875 254.441406 21.460938 248.910156 21.433594 " fill-opacity="1" fill-rule="nonzero"/><path fill="#ecb20e" d="M 274.433594 6.957031 C 269.285156 6.835938 264.105469 7.054688 258.96875 7.261719 C 244.402344 7.851562 229.8125 8.363281 215.257812 9.226562 C 231.855469 10.425781 248.425781 12.082031 264.929688 14.230469 C 271.191406 15.042969 277.5 15.941406 283.40625 18.152344 C 289.316406 20.371094 294.871094 24.039062 298.261719 29.359375 C 301.5625 34.53125 302.570312 40.828125 302.960938 46.949219 C 303.054688 48.265625 303.054688 49.589844 303.089844 50.910156 C 305.492188 51.199219 307.882812 51.53125 310.265625 51.945312 C 312.277344 52.289062 314.269531 52.726562 316.238281 53.25 C 316.472656 50.738281 316.277344 48.152344 315.953125 45.628906 C 315.152344 39.480469 313.757812 33.390625 311.515625 27.605469 C 309.808594 23.226562 307.558594 18.949219 304.136719 15.722656 C 300.199219 12.007812 294.972656 9.933594 289.699219 8.710938 C 284.6875 7.546875 279.574219 7.082031 274.429688 6.957031 L 274.433594 6.957031 " fill-opacity="1" fill-rule="nonzero"/><g clip-path="url(#2b4a098803)"><path fill="#231f20" d="M 77.894531 267.824219 C 80.53125 285.183594 82.742188 302.847656 84.457031 320.328125 L 84.519531 320.992188 C 85.523438 331.234375 86.5625 341.820312 91.53125 350.527344 C 94.390625 355.535156 98.320312 359.46875 102.890625 361.910156 C 106.320312 363.742188 110.527344 364.921875 115.386719 365.421875 C 119.746094 365.867188 124.148438 365.761719 129.03125 365.589844 C 135.351562 365.367188 141.777344 365.089844 147.992188 364.816406 C 153.769531 364.566406 159.742188 364.304688 165.621094 364.09375 C 186.3125 363.34375 207.34375 363.121094 227.683594 362.902344 C 236.929688 362.804688 246.496094 362.703125 255.894531 362.550781 C 272.136719 362.292969 285.75 361.90625 299.390625 360.871094 C 303.449219 360.5625 307.738281 360.175781 311.75 359.152344 C 316.046875 358.050781 319.585938 356.324219 322.269531 354.007812 C 327.445312 349.550781 329.855469 342.652344 331.371094 337.144531 C 335.058594 323.761719 335.882812 309.621094 336.207031 297.554688 C 336.519531 285.707031 336.382812 273.628906 336.246094 261.957031 L 336.207031 258.308594 C 336.15625 253.800781 336.109375 249.285156 336.066406 244.777344 C 335.976562 235.519531 335.882812 225.949219 335.734375 216.542969 C 335.398438 195.835938 334.753906 174.777344 334.132812 154.414062 L 333.992188 149.9375 C 333.390625 130.113281 332.707031 107.644531 332.835938 85.535156 L 332.835938 85.070312 C 332.859375 81.023438 332.890625 76.835938 332.222656 72.882812 C 331.46875 68.433594 329.917969 64.832031 327.617188 62.175781 C 325.703125 59.972656 323.054688 58.175781 319.742188 56.835938 C 316.433594 55.503906 312.898438 54.789062 309.871094 54.265625 C 301.988281 52.902344 293.449219 52.175781 282.992188 51.980469 C 278.0625 51.890625 273.042969 51.921875 268.179688 51.953125 C 266.371094 51.964844 264.5625 51.976562 262.757812 51.984375 C 244.992188 52.039062 226.949219 51.515625 209.503906 51.007812 C 194.339844 50.570312 178.65625 50.109375 163.238281 50.042969 C 155.484375 50.007812 147.59375 50.066406 139.957031 50.125 C 127.96875 50.21875 115.574219 50.316406 103.367188 50.042969 L 102.585938 50.023438 C 98.898438 49.941406 95.085938 49.851562 91.453125 50.28125 C 87.238281 50.777344 83.699219 51.953125 80.945312 53.753906 C 76.601562 56.59375 74.128906 60.976562 72.8125 64.152344 C 69.585938 71.972656 69.648438 80.957031 69.710938 89.648438 L 69.714844 90.277344 C 69.757812 96.195312 69.734375 102.203125 69.71875 108.019531 C 69.699219 113.484375 69.683594 119.140625 69.714844 124.699219 C 69.832031 145.179688 70.613281 167.011719 72.167969 193.40625 C 73.628906 218.109375 75.554688 243.152344 77.894531 267.824219 Z M 122.339844 370.457031 C 119.828125 370.457031 117.378906 370.367188 114.90625 370.117188 C 109.429688 369.550781 104.640625 368.191406 100.667969 366.070312 C 95.308594 363.214844 90.734375 358.648438 87.4375 352.867188 C 81.964844 343.285156 80.878906 332.1875 79.824219 321.453125 L 79.761719 320.789062 C 78.046875 303.371094 75.847656 285.769531 73.21875 268.46875 L 74.476562 268.277344 L 73.203125 268.339844 C 70.855469 243.585938 68.921875 218.472656 67.460938 193.683594 C 65.898438 167.203125 65.113281 145.292969 64.996094 124.726562 C 64.964844 119.148438 64.984375 113.480469 65 108.003906 C 65.019531 102.199219 65.035156 96.203125 64.996094 90.308594 L 64.992188 89.679688 C 64.929688 80.523438 64.859375 71.050781 68.453125 62.351562 C 70.699219 56.914062 74.125 52.578125 78.359375 49.808594 C 81.734375 47.597656 85.949219 46.183594 90.898438 45.597656 C 94.863281 45.125 98.84375 45.21875 102.695312 45.304688 L 103.46875 45.328125 C 115.605469 45.597656 127.96875 45.5 139.921875 45.410156 C 147.570312 45.351562 155.476562 45.289062 163.261719 45.324219 C 178.734375 45.394531 194.445312 45.851562 209.640625 46.292969 C 227.050781 46.796875 245.039062 47.320312 262.742188 47.261719 C 264.546875 47.257812 266.347656 47.246094 268.152344 47.234375 C 273.039062 47.203125 278.09375 47.171875 283.078125 47.261719 C 293.78125 47.464844 302.550781 48.214844 310.675781 49.617188 C 313.949219 50.183594 317.792969 50.964844 321.507812 52.460938 C 325.519531 54.085938 328.773438 56.3125 331.179688 59.085938 C 334.0625 62.402344 335.976562 66.785156 336.875 72.097656 C 337.609375 76.453125 337.582031 80.847656 337.558594 85.097656 L 337.554688 85.5625 C 337.425781 107.585938 338.105469 130.011719 338.710938 149.796875 L 338.847656 154.273438 C 339.46875 174.648438 340.117188 195.726562 340.453125 216.464844 C 340.605469 225.890625 340.695312 235.46875 340.785156 244.730469 C 340.832031 249.238281 340.875 253.75 340.921875 258.253906 L 340.964844 261.898438 C 341.101562 273.625 341.242188 285.738281 340.921875 297.679688 C 340.59375 310.03125 339.742188 324.527344 335.917969 338.394531 C 334.359375 344.066406 331.558594 352.234375 325.351562 357.585938 C 322.109375 360.375 317.925781 362.441406 312.917969 363.71875 C 308.539062 364.839844 304.011719 365.25 299.75 365.574219 C 285.992188 366.621094 272.296875 367.007812 255.96875 367.269531 C 246.554688 367.417969 236.988281 367.519531 227.730469 367.617188 C 207.421875 367.835938 186.421875 368.058594 165.792969 368.804688 C 159.929688 369.019531 153.964844 369.28125 148.195312 369.53125 C 141.972656 369.800781 135.539062 370.082031 129.199219 370.304688 C 126.824219 370.386719 124.558594 370.457031 122.339844 370.457031 " fill-opacity="1" fill-rule="nonzero"/></g><path fill="#e9e8df" d="M 95.570312 292.230469 C 95.421875 288.578125 96.527344 284.878906 98.691406 281.933594 C 100.851562 278.988281 104.058594 276.816406 107.609375 275.9375 C 111.269531 275.027344 115.253906 275.507812 118.609375 277.230469 C 121.96875 278.953125 124.667969 281.898438 126.128906 285.378906 C 127.199219 287.945312 127.605469 290.789062 127.28125 293.554688 C 126.957031 296.316406 125.90625 298.992188 124.253906 301.230469 C 122.605469 303.46875 120.359375 305.269531 117.808594 306.382812 C 115.257812 307.496094 112.40625 307.921875 109.644531 307.59375 C 105.890625 307.148438 102.328125 305.300781 99.785156 302.503906 C 97.238281 299.710938 95.730469 296.003906 95.570312 292.230469 " fill-opacity="1" fill-rule="nonzero"/><path fill="#231f20" d="M 97.703125 292.140625 C 97.839844 295.417969 99.171875 298.671875 101.359375 301.070312 C 103.566406 303.492188 106.675781 305.097656 109.898438 305.476562 C 112.296875 305.761719 114.734375 305.398438 116.953125 304.429688 C 119.167969 303.460938 121.097656 301.917969 122.535156 299.96875 C 123.972656 298.019531 124.878906 295.714844 125.164062 293.304688 C 125.445312 290.898438 125.097656 288.445312 124.160156 286.199219 C 122.898438 283.183594 120.519531 280.605469 117.636719 279.125 C 114.730469 277.632812 111.265625 277.226562 108.121094 278.007812 C 105.089844 278.757812 102.28125 280.648438 100.410156 283.195312 C 98.53125 285.753906 97.570312 288.929688 97.703125 292.140625 Z M 111.484375 309.835938 C 110.789062 309.835938 110.089844 309.792969 109.398438 309.710938 C 105.171875 309.210938 101.09375 307.109375 98.207031 303.941406 C 95.316406 300.765625 93.625 296.640625 93.441406 292.316406 C 93.269531 288.144531 94.523438 284.011719 96.972656 280.671875 C 99.457031 277.285156 103.050781 274.871094 107.097656 273.867188 C 111.222656 272.84375 115.773438 273.375 119.582031 275.332031 C 123.347656 277.265625 126.449219 280.625 128.09375 284.558594 C 129.3125 287.476562 129.765625 290.671875 129.398438 293.800781 C 129.03125 296.949219 127.84375 299.953125 125.96875 302.496094 C 124.085938 305.050781 121.558594 307.070312 118.660156 308.335938 C 116.390625 309.328125 113.949219 309.835938 111.484375 309.835938 " fill-opacity="1" fill-rule="nonzero"/><path fill="#d5d3c4" d="M 107.3125 297.207031 C 102.339844 296.558594 97.253906 296.769531 92.355469 297.820312 C 86.425781 299.09375 80.777344 301.59375 75.757812 304.992188 C 74.507812 305.835938 73.277344 306.753906 72.355469 307.949219 C 71.898438 308.546875 71.519531 309.214844 71.28125 309.929688 C 71.042969 310.644531 70.949219 311.414062 71.042969 312.160156 C 71.164062 313.09375 71.582031 313.976562 72.171875 314.707031 C 72.757812 315.441406 73.511719 316.027344 74.332031 316.492188 C 75.96875 317.414062 77.835938 317.828125 79.648438 318.304688 C 80.414062 318.507812 81.171875 318.722656 81.925781 318.953125 L 84.097656 336.269531 C 79.839844 334.5625 75.683594 332.597656 71.660156 330.394531 C 68.722656 328.78125 65.835938 327.03125 63.304688 324.832031 C 60.773438 322.640625 58.597656 319.972656 57.316406 316.871094 C 55.839844 313.304688 55.621094 309.265625 56.488281 305.507812 C 57.351562 301.742188 59.273438 298.261719 61.824219 295.363281 C 65.113281 291.621094 69.433594 288.855469 74.074219 287.050781 C 78.71875 285.246094 83.691406 284.378906 88.667969 284.097656 C 96.046875 283.675781 103.433594 284.519531 110.796875 285.222656 C 111.945312 285.332031 113.105469 285.441406 114.230469 285.710938 C 115.355469 285.988281 116.453125 286.4375 117.355469 287.164062 C 118.265625 287.914062 118.949219 288.949219 119.222656 290.09375 C 119.5 291.238281 119.355469 292.484375 118.785156 293.519531 C 118.332031 294.332031 117.636719 294.996094 116.84375 295.496094 C 116.054688 295.992188 115.171875 296.328125 114.28125 296.589844 C 112.023438 297.257812 109.644531 297.46875 107.3125 297.207031 " fill-opacity="1" fill-rule="nonzero"/><path fill="#231f20" d="M 92.726562 286.34375 C 91.410156 286.34375 90.101562 286.375 88.800781 286.449219 C 83.621094 286.742188 78.953125 287.6875 74.929688 289.253906 C 70.371094 291.019531 66.453125 293.671875 63.597656 296.921875 C 61.195312 299.648438 59.53125 302.796875 58.785156 306.035156 C 58.003906 309.445312 58.257812 312.972656 59.496094 315.972656 C 60.535156 318.488281 62.339844 320.875 64.851562 323.054688 C 67.382812 325.253906 70.285156 326.953125 72.792969 328.324219 C 75.535156 329.828125 78.371094 331.230469 81.246094 332.503906 L 79.777344 320.785156 C 79.535156 320.71875 79.292969 320.652344 79.050781 320.589844 L 78.40625 320.421875 C 76.675781 319.972656 74.882812 319.507812 73.175781 318.546875 C 72.023438 317.890625 71.070312 317.097656 70.332031 316.183594 C 69.4375 315.070312 68.875 313.785156 68.703125 312.464844 C 68.566406 311.402344 68.679688 310.269531 69.042969 309.1875 C 69.351562 308.253906 69.839844 307.359375 70.488281 306.515625 C 71.621094 305.039062 73.054688 303.96875 74.433594 303.039062 C 79.871094 299.359375 85.730469 296.828125 91.859375 295.511719 C 97.046875 294.402344 102.347656 294.183594 107.613281 294.867188 L 107.65625 294.871094 C 109.640625 295.082031 111.695312 294.894531 113.613281 294.328125 C 114.449219 294.082031 115.078125 293.820312 115.589844 293.496094 C 116.101562 293.175781 116.496094 292.785156 116.722656 292.375 C 116.992188 291.886719 117.070312 291.234375 116.929688 290.644531 C 116.777344 290.027344 116.390625 289.425781 115.859375 288.996094 C 115.328125 288.5625 114.589844 288.226562 113.671875 288.003906 C 112.738281 287.777344 111.722656 287.679688 110.648438 287.578125 L 110.570312 287.570312 C 109.816406 287.496094 109.058594 287.421875 108.300781 287.351562 C 103.175781 286.855469 97.914062 286.34375 92.726562 286.34375 Z M 86.9375 339.945312 L 83.21875 338.457031 C 78.882812 336.71875 74.609375 334.703125 70.527344 332.460938 C 67.800781 330.96875 64.628906 329.109375 61.757812 326.617188 C 58.683594 323.953125 56.457031 320.976562 55.136719 317.773438 C 53.523438 313.875 53.1875 309.332031 54.191406 304.976562 C 55.109375 300.980469 57.136719 297.113281 60.054688 293.804688 C 63.410156 289.992188 67.964844 286.898438 73.21875 284.855469 C 77.707031 283.109375 82.855469 282.0625 88.53125 281.738281 C 95.339844 281.351562 102.15625 282.011719 108.753906 282.65625 C 109.507812 282.726562 110.261719 282.804688 111.015625 282.875 L 111.097656 282.882812 C 112.289062 282.996094 113.523438 283.113281 114.789062 283.421875 C 116.394531 283.808594 117.761719 284.457031 118.84375 285.339844 C 120.175781 286.429688 121.128906 287.917969 121.515625 289.542969 C 121.933594 291.269531 121.691406 293.136719 120.851562 294.660156 C 120.238281 295.769531 119.285156 296.75 118.097656 297.492188 C 117.222656 298.042969 116.1875 298.488281 114.941406 298.851562 C 112.402344 299.601562 109.675781 299.84375 107.050781 299.550781 L 105.355469 299.363281 C 101.171875 298.984375 96.96875 299.242188 92.847656 300.125 C 87.394531 301.296875 81.945312 303.65625 77.082031 306.941406 C 76.027344 307.65625 74.953125 308.449219 74.222656 309.390625 C 73.902344 309.8125 73.664062 310.25 73.519531 310.675781 C 73.382812 311.085938 73.335938 311.496094 73.382812 311.855469 C 73.441406 312.3125 73.664062 312.800781 74.011719 313.226562 C 74.371094 313.675781 74.867188 314.082031 75.492188 314.4375 C 76.664062 315.097656 78.089844 315.464844 79.59375 315.855469 L 80.253906 316.027344 C 81.03125 316.234375 81.824219 316.457031 82.609375 316.695312 L 84.078125 317.136719 L 86.9375 339.945312 " fill-opacity="1" fill-rule="nonzero"/><path fill="#e9e8df" d="M 88.539062 221.203125 C 88.382812 217.554688 89.492188 213.859375 91.652344 210.910156 C 93.816406 207.964844 97.027344 205.792969 100.574219 204.914062 C 104.234375 204.003906 108.214844 204.484375 111.570312 206.207031 C 114.929688 207.929688 117.632812 210.878906 119.085938 214.359375 C 120.164062 216.921875 120.566406 219.769531 120.246094 222.53125 C 119.917969 225.292969 118.871094 227.96875 117.21875 230.210938 C 115.566406 232.449219 113.320312 234.246094 110.769531 235.363281 C 108.222656 236.472656 105.375 236.898438 102.609375 236.574219 C 98.855469 236.125 95.292969 234.277344 92.746094 231.480469 C 90.203125 228.691406 88.695312 224.980469 88.539062 221.203125 " fill-opacity="1" fill-rule="nonzero"/><path fill="#231f20" d="M 90.667969 221.117188 C 90.804688 224.390625 92.136719 227.648438 94.324219 230.046875 C 96.527344 232.46875 99.636719 234.074219 102.859375 234.453125 C 105.257812 234.738281 107.699219 234.375 109.917969 233.40625 C 112.132812 232.4375 114.0625 230.898438 115.503906 228.945312 C 116.9375 226.996094 117.84375 224.691406 118.125 222.285156 C 118.40625 219.878906 118.0625 217.421875 117.121094 215.179688 C 115.859375 212.160156 113.484375 209.585938 110.597656 208.105469 C 107.695312 206.613281 104.226562 206.203125 101.085938 206.984375 C 98.054688 207.734375 95.242188 209.628906 93.375 212.171875 C 91.492188 214.734375 90.53125 217.90625 90.667969 221.117188 Z M 104.457031 238.8125 C 103.753906 238.8125 103.054688 238.769531 102.359375 238.6875 C 98.132812 238.1875 94.054688 236.085938 91.171875 232.917969 C 88.28125 229.746094 86.585938 225.617188 86.40625 221.292969 C 86.234375 217.121094 87.488281 212.988281 89.933594 209.648438 C 92.421875 206.265625 96.019531 203.847656 100.058594 202.847656 C 104.183594 201.820312 108.738281 202.355469 112.546875 204.3125 C 116.308594 206.242188 119.414062 209.601562 121.054688 213.535156 C 122.273438 216.449219 122.730469 219.648438 122.363281 222.78125 C 121.992188 225.925781 120.804688 228.929688 118.933594 231.472656 C 117.050781 234.027344 114.523438 236.046875 111.625 237.3125 C 109.355469 238.304688 106.910156 238.8125 104.457031 238.8125 " fill-opacity="1" fill-rule="nonzero"/><path fill="#d5d3c4" d="M 99.527344 227.960938 C 94.550781 227.304688 89.46875 227.515625 84.566406 228.578125 C 78.640625 229.863281 73.015625 232.390625 67.96875 235.746094 C 66.707031 236.582031 65.464844 237.496094 64.539062 238.6875 C 64.078125 239.289062 63.695312 239.957031 63.464844 240.679688 C 63.226562 241.398438 63.140625 242.171875 63.261719 242.917969 C 63.398438 243.835938 63.839844 244.699219 64.441406 245.410156 C 65.046875 246.117188 65.8125 246.683594 66.625 247.128906 C 68.261719 248.023438 70.101562 248.453125 71.863281 249.066406 C 72.503906 249.285156 73.132812 249.53125 73.753906 249.800781 L 75 266.109375 C 71.183594 264.707031 67.460938 263.054688 63.875 261.148438 C 60.910156 259.582031 58.011719 257.832031 55.488281 255.625 C 52.960938 253.425781 50.796875 250.738281 49.527344 247.628906 C 48.070312 244.058594 47.855469 240.023438 48.71875 236.265625 C 49.582031 232.507812 51.492188 229.019531 54.039062 226.121094 C 57.324219 222.375 61.640625 219.609375 66.285156 217.804688 C 70.933594 216 75.902344 215.132812 80.878906 214.851562 C 88.261719 214.433594 95.644531 215.277344 103.007812 215.976562 C 104.164062 216.089844 105.320312 216.195312 106.441406 216.46875 C 107.570312 216.742188 108.667969 217.191406 109.566406 217.925781 C 110.476562 218.667969 111.160156 219.703125 111.433594 220.847656 C 111.710938 221.996094 111.566406 223.246094 111 224.273438 C 110.550781 225.09375 109.847656 225.757812 109.058594 226.25 C 108.269531 226.746094 107.386719 227.085938 106.492188 227.351562 C 104.242188 228.011719 101.859375 228.222656 99.527344 227.964844 L 99.527344 227.960938 " fill-opacity="1" fill-rule="nonzero"/><path fill="#231f20" d="M 84.9375 217.101562 C 83.625 217.101562 82.316406 217.136719 81.015625 217.207031 C 75.828125 217.5 71.160156 218.4375 67.140625 220 C 62.582031 221.773438 58.660156 224.429688 55.8125 227.675781 C 53.421875 230.398438 51.761719 233.550781 51.019531 236.792969 C 50.238281 240.195312 50.488281 243.730469 51.710938 246.734375 C 52.75 249.28125 54.542969 251.671875 57.039062 253.847656 C 59.082031 255.632812 61.53125 257.242188 64.980469 259.066406 C 67.378906 260.335938 69.847656 261.5 72.359375 262.542969 L 71.511719 251.445312 C 71.371094 251.390625 71.234375 251.339844 71.089844 251.292969 C 70.613281 251.125 70.136719 250.976562 69.65625 250.828125 C 68.289062 250.398438 66.875 249.949219 65.496094 249.195312 C 64.351562 248.570312 63.386719 247.8125 62.648438 246.9375 C 61.71875 245.847656 61.125 244.582031 60.925781 243.277344 C 60.761719 242.199219 60.863281 241.046875 61.21875 239.945312 C 61.523438 239.011719 62.011719 238.105469 62.671875 237.253906 C 63.808594 235.78125 65.261719 234.714844 66.664062 233.785156 C 72.191406 230.105469 78.046875 227.578125 84.066406 226.273438 C 89.261719 225.144531 94.570312 224.925781 99.835938 225.625 L 99.871094 225.628906 C 101.855469 225.835938 103.914062 225.648438 105.824219 225.085938 C 106.664062 224.839844 107.292969 224.574219 107.804688 224.253906 C 108.320312 223.929688 108.707031 223.546875 108.9375 223.132812 C 109.207031 222.640625 109.285156 221.996094 109.140625 221.402344 C 108.996094 220.785156 108.605469 220.1875 108.074219 219.753906 C 107.542969 219.316406 106.808594 218.984375 105.886719 218.761719 C 104.945312 218.53125 103.925781 218.4375 102.847656 218.332031 L 102.785156 218.324219 C 102.035156 218.253906 101.285156 218.183594 100.535156 218.109375 C 95.40625 217.609375 90.136719 217.101562 84.9375 217.101562 Z M 77.628906 269.585938 L 74.183594 268.324219 C 70.285156 266.894531 66.445312 265.183594 62.769531 263.234375 C 58.988281 261.234375 56.265625 259.433594 53.9375 257.40625 C 50.878906 254.738281 48.664062 251.753906 47.34375 248.519531 C 45.75 244.621094 45.421875 240.082031 46.421875 235.742188 C 47.339844 231.734375 49.359375 227.871094 52.265625 224.5625 C 55.613281 220.746094 60.167969 217.648438 65.433594 215.605469 C 69.914062 213.867188 75.066406 212.820312 80.746094 212.496094 C 87.558594 212.109375 94.382812 212.773438 100.988281 213.410156 C 101.734375 213.488281 102.488281 213.558594 103.234375 213.628906 L 103.292969 213.636719 C 104.496094 213.75 105.730469 213.871094 107 214.175781 C 108.613281 214.570312 109.976562 215.214844 111.058594 216.097656 C 112.390625 217.179688 113.339844 218.675781 113.730469 220.300781 C 114.144531 222.03125 113.90625 223.890625 113.070312 225.414062 C 112.449219 226.527344 111.5 227.503906 110.3125 228.246094 C 109.425781 228.804688 108.425781 229.238281 107.160156 229.613281 C 104.625 230.359375 101.894531 230.597656 99.265625 230.308594 L 97.34375 230.097656 C 93.238281 229.742188 89.117188 230.003906 85.066406 230.882812 C 79.625 232.0625 74.3125 234.363281 69.277344 237.714844 C 68.042969 238.53125 67.085938 239.257812 66.40625 240.132812 C 66.078125 240.558594 65.84375 240.984375 65.707031 241.40625 C 65.574219 241.808594 65.535156 242.207031 65.589844 242.5625 C 65.65625 242.996094 65.886719 243.464844 66.242188 243.878906 C 66.609375 244.3125 67.121094 244.710938 67.757812 245.058594 C 68.730469 245.589844 69.867188 245.949219 71.074219 246.328125 C 71.597656 246.492188 72.121094 246.65625 72.636719 246.835938 C 73.324219 247.074219 74.015625 247.34375 74.691406 247.636719 L 75.996094 248.203125 L 77.628906 269.585938 " fill-opacity="1" fill-rule="nonzero"/><path fill="#e9e8df" d="M 81.074219 161.964844 C 80.925781 158.3125 82.03125 154.617188 84.195312 151.671875 C 86.359375 148.726562 89.566406 146.554688 93.113281 145.675781 C 96.777344 144.765625 100.757812 145.242188 104.113281 146.964844 C 107.46875 148.691406 110.175781 151.636719 111.632812 155.117188 C 112.703125 157.683594 113.109375 160.527344 112.785156 163.292969 C 112.460938 166.054688 111.40625 168.730469 109.757812 170.96875 C 108.109375 173.210938 105.859375 175.007812 103.3125 176.121094 C 100.761719 177.234375 97.910156 177.660156 95.148438 177.332031 C 91.398438 176.890625 87.832031 175.035156 85.289062 172.246094 C 82.746094 169.453125 81.238281 165.738281 81.074219 161.964844 " fill-opacity="1" fill-rule="nonzero"/><path fill="#231f20" d="M 83.207031 161.878906 C 83.34375 165.152344 84.679688 168.40625 86.867188 170.808594 C 89.070312 173.226562 92.179688 174.835938 95.398438 175.21875 C 97.796875 175.5 100.238281 175.136719 102.457031 174.167969 C 104.671875 173.199219 106.605469 171.65625 108.039062 169.703125 C 109.476562 167.757812 110.386719 165.457031 110.667969 163.039062 C 110.949219 160.640625 110.601562 158.179688 109.664062 155.9375 C 108.402344 152.921875 106.019531 150.34375 103.140625 148.863281 C 100.234375 147.371094 96.769531 146.964844 93.628906 147.746094 C 90.59375 148.5 87.785156 150.386719 85.914062 152.933594 C 84.035156 155.492188 83.074219 158.671875 83.207031 161.878906 Z M 96.988281 179.574219 C 96.292969 179.574219 95.597656 179.53125 94.898438 179.449219 C 90.675781 178.949219 86.597656 176.847656 83.714844 173.683594 C 80.820312 170.503906 79.128906 166.378906 78.945312 162.058594 L 78.945312 162.054688 C 78.773438 157.882812 80.023438 153.746094 82.476562 150.410156 C 84.960938 147.027344 88.554688 144.609375 92.601562 143.605469 C 96.726562 142.585938 101.277344 143.117188 105.089844 145.070312 C 108.851562 147.003906 111.953125 150.363281 113.597656 154.292969 C 114.816406 157.214844 115.269531 160.40625 114.902344 163.539062 C 114.535156 166.6875 113.347656 169.691406 111.476562 172.234375 C 109.59375 174.785156 107.066406 176.808594 104.167969 178.074219 C 101.898438 179.066406 99.449219 179.574219 96.988281 179.574219 " fill-opacity="1" fill-rule="nonzero"/><path fill="#d5d3c4" d="M 91.273438 166.925781 C 86.296875 166.285156 81.214844 166.492188 76.3125 167.539062 C 70.382812 168.808594 64.734375 171.300781 59.714844 174.710938 C 58.46875 175.558594 57.246094 176.476562 56.328125 177.671875 C 55.867188 178.273438 55.492188 178.9375 55.246094 179.652344 C 55.007812 180.367188 54.910156 181.132812 55.003906 181.882812 C 55.117188 182.816406 55.53125 183.699219 56.117188 184.441406 C 56.699219 185.175781 57.453125 185.773438 58.269531 186.238281 C 59.90625 187.171875 61.78125 187.582031 63.609375 188.027344 C 65.546875 188.496094 67.46875 189.015625 69.382812 189.582031 L 70.425781 204.664062 C 65.304688 203.871094 60.300781 202.332031 55.617188 200.117188 C 52.578125 198.671875 49.65625 196.933594 47.136719 194.699219 C 44.613281 192.46875 42.503906 189.730469 41.273438 186.589844 C 39.871094 183.007812 39.664062 178.992188 40.515625 175.234375 C 41.371094 171.480469 43.253906 167.984375 45.785156 165.082031 C 49.054688 161.324219 53.375 158.550781 58.023438 156.75 C 62.671875 154.949219 67.648438 154.09375 72.625 153.816406 C 80.007812 153.402344 87.394531 154.242188 94.753906 154.941406 C 95.90625 155.050781 97.066406 155.160156 98.191406 155.433594 C 99.3125 155.707031 100.414062 156.160156 101.3125 156.886719 C 102.222656 157.636719 102.90625 158.667969 103.179688 159.8125 C 103.457031 160.957031 103.316406 162.207031 102.742188 163.242188 C 102.292969 164.054688 101.59375 164.71875 100.804688 165.21875 C 100.011719 165.710938 99.132812 166.046875 98.238281 166.308594 C 95.984375 166.976562 93.601562 167.1875 91.269531 166.929688 L 91.273438 166.925781 " fill-opacity="1" fill-rule="nonzero"/><path fill="#231f20" d="M 76.648438 156.066406 C 75.34375 156.066406 74.046875 156.097656 72.753906 156.167969 C 67.554688 156.460938 62.882812 157.394531 58.875 158.949219 C 54.3125 160.714844 50.398438 163.375 47.558594 166.632812 C 45.199219 169.347656 43.558594 172.507812 42.816406 175.757812 C 42.046875 179.152344 42.277344 182.695312 43.472656 185.734375 C 44.484375 188.308594 46.289062 190.800781 48.695312 192.933594 C 50.800781 194.804688 53.394531 196.449219 56.625 197.984375 C 60.21875 199.683594 63.984375 200.960938 67.859375 201.792969 L 67.144531 191.390625 C 65.78125 191.007812 64.414062 190.652344 63.050781 190.320312 L 62.691406 190.234375 C 60.835938 189.785156 58.921875 189.320312 57.105469 188.289062 C 55.957031 187.636719 55 186.835938 54.265625 185.902344 C 53.378906 184.785156 52.824219 183.488281 52.664062 182.167969 C 52.53125 181.105469 52.652344 179.976562 53.011719 178.90625 C 53.324219 177.972656 53.8125 177.078125 54.453125 176.242188 C 55.585938 174.761719 57.015625 173.691406 58.390625 172.761719 C 63.722656 169.132812 69.75 166.53125 75.820312 165.234375 C 81.007812 164.125 86.308594 163.90625 91.570312 164.585938 L 91.625 164.589844 C 93.609375 164.800781 95.660156 164.613281 97.570312 164.046875 C 98.410156 163.800781 99.039062 163.539062 99.550781 163.214844 C 100.0625 162.894531 100.453125 162.507812 100.679688 162.101562 C 100.953125 161.605469 101.027344 160.957031 100.890625 160.363281 C 100.738281 159.75 100.347656 159.148438 99.820312 158.71875 C 99.289062 158.28125 98.550781 157.949219 97.628906 157.722656 C 96.691406 157.496094 95.664062 157.398438 94.582031 157.296875 L 94.53125 157.292969 C 93.800781 157.21875 93.074219 157.152344 92.34375 157.082031 C 87.183594 156.582031 81.878906 156.066406 76.648438 156.066406 Z M 72.980469 207.445312 L 70.0625 206.996094 C 64.707031 206.164062 59.503906 204.566406 54.609375 202.246094 C 50.964844 200.523438 48.011719 198.628906 45.570312 196.464844 C 42.601562 193.839844 40.359375 190.726562 39.078125 187.453125 C 37.546875 183.542969 37.238281 179.019531 38.214844 174.714844 C 39.125 170.707031 41.128906 166.839844 44.003906 163.535156 C 47.34375 159.699219 51.894531 156.589844 57.171875 154.550781 C 61.640625 152.816406 66.792969 151.777344 72.492188 151.460938 C 79.328125 151.082031 86.175781 151.742188 92.800781 152.386719 C 93.527344 152.453125 94.253906 152.523438 94.976562 152.59375 L 95.027344 152.601562 C 96.230469 152.714844 97.472656 152.832031 98.75 153.140625 C 100.359375 153.53125 101.722656 154.179688 102.800781 155.0625 C 104.136719 156.148438 105.085938 157.640625 105.472656 159.265625 C 105.890625 160.996094 105.648438 162.863281 104.808594 164.382812 C 104.203125 165.484375 103.25 166.464844 102.058594 167.210938 C 101.171875 167.769531 100.171875 168.199219 98.90625 168.574219 C 96.367188 169.324219 93.636719 169.5625 91.011719 169.273438 L 89.339844 169.085938 C 85.144531 168.707031 80.9375 168.964844 76.804688 169.847656 C 71.328125 171.019531 65.875 173.375 61.039062 176.660156 C 59.992188 177.371094 58.925781 178.164062 58.199219 179.109375 C 57.871094 179.539062 57.632812 179.972656 57.484375 180.402344 C 57.347656 180.808594 57.296875 181.226562 57.34375 181.59375 C 57.402344 182.050781 57.621094 182.539062 57.964844 182.976562 C 58.324219 183.429688 58.816406 183.835938 59.4375 184.1875 C 60.675781 184.894531 62.195312 185.257812 63.800781 185.648438 L 64.164062 185.734375 C 66.128906 186.210938 68.109375 186.746094 70.054688 187.320312 L 71.621094 187.785156 L 72.980469 207.445312 " fill-opacity="1" fill-rule="nonzero"/><path fill="#e9e8df" d="M 77.933594 95.089844 C 77.785156 91.4375 78.890625 87.738281 81.054688 84.792969 C 83.214844 81.84375 86.421875 79.675781 89.972656 78.796875 C 93.628906 77.890625 97.617188 78.363281 100.972656 80.085938 C 104.328125 81.808594 107.03125 84.761719 108.488281 88.238281 C 109.5625 90.804688 109.964844 93.648438 109.640625 96.414062 C 109.320312 99.175781 108.265625 101.851562 106.617188 104.089844 C 104.96875 106.332031 102.71875 108.128906 100.171875 109.242188 C 97.617188 110.355469 94.769531 110.78125 92.007812 110.453125 C 88.253906 110.007812 84.6875 108.160156 82.148438 105.367188 C 79.601562 102.574219 78.09375 98.863281 77.933594 95.089844 " fill-opacity="1" fill-rule="nonzero"/><path fill="#231f20" d="M 80.0625 94.996094 C 80.203125 98.273438 81.535156 101.527344 83.722656 103.929688 C 85.925781 106.347656 89.035156 107.957031 92.257812 108.335938 C 94.65625 108.621094 97.097656 108.257812 99.316406 107.289062 C 101.53125 106.320312 103.460938 104.78125 104.898438 102.824219 C 106.335938 100.882812 107.242188 98.578125 107.527344 96.164062 C 107.804688 93.761719 107.457031 91.300781 106.523438 89.058594 C 105.261719 86.042969 102.878906 83.464844 99.996094 81.984375 C 97.09375 80.492188 93.625 80.085938 90.484375 80.867188 C 87.453125 81.617188 84.640625 83.507812 82.769531 86.054688 C 80.894531 88.617188 79.933594 91.792969 80.0625 94.996094 Z M 93.847656 112.695312 C 93.152344 112.695312 92.453125 112.652344 91.757812 112.570312 C 87.53125 112.070312 83.453125 109.96875 80.570312 106.800781 C 77.675781 103.625 75.988281 99.5 75.804688 95.179688 C 75.628906 91.007812 76.882812 86.867188 79.332031 83.53125 C 81.820312 80.148438 85.414062 77.730469 89.457031 76.726562 C 93.585938 75.703125 98.136719 76.238281 101.945312 78.191406 C 105.710938 80.121094 108.808594 83.484375 110.457031 87.414062 C 111.675781 90.332031 112.125 93.527344 111.761719 96.660156 C 111.394531 99.808594 110.207031 102.8125 108.332031 105.355469 C 106.453125 107.910156 103.921875 109.929688 101.023438 111.195312 C 98.753906 112.1875 96.308594 112.695312 93.847656 112.695312 " fill-opacity="1" fill-rule="nonzero"/><path fill="#d5d3c4" d="M 87.792969 100.171875 C 82.820312 99.53125 77.742188 99.738281 72.835938 100.785156 C 66.90625 102.046875 61.246094 104.539062 56.238281 107.953125 C 54.992188 108.804688 53.769531 109.726562 52.855469 110.921875 C 51.9375 112.117188 51.347656 113.628906 51.527344 115.125 C 51.636719 116.0625 52.042969 116.953125 52.625 117.699219 C 53.203125 118.441406 53.953125 119.039062 54.773438 119.507812 C 56.414062 120.449219 58.289062 120.859375 60.132812 121.269531 C 62.488281 121.800781 64.839844 122.351562 67.183594 122.929688 L 66.894531 138.511719 C 61.789062 137.40625 56.824219 135.675781 52.136719 133.359375 C 49.128906 131.867188 46.214844 130.125 43.691406 127.902344 C 41.171875 125.679688 39.039062 122.960938 37.796875 119.835938 C 36.371094 116.257812 36.164062 112.234375 37.019531 108.476562 C 37.875 104.71875 39.773438 101.230469 42.304688 98.328125 C 45.582031 94.570312 49.902344 91.796875 54.546875 89.996094 C 59.191406 88.195312 64.171875 87.332031 69.144531 87.0625 C 76.53125 86.652344 83.914062 87.515625 91.277344 88.183594 C 92.429688 88.289062 93.589844 88.394531 94.71875 88.664062 C 95.84375 88.9375 96.945312 89.390625 97.832031 90.132812 C 98.734375 90.882812 99.398438 91.921875 99.667969 93.058594 C 99.933594 94.203125 99.800781 95.441406 99.265625 96.484375 C 98.894531 97.210938 98.332031 97.839844 97.691406 98.34375 C 97.042969 98.851562 96.316406 99.242188 95.558594 99.554688 C 93.117188 100.5625 90.359375 100.78125 87.792969 100.171875 " fill-opacity="1" fill-rule="nonzero"/><g clip-path="url(#6f4188e286)"><path fill="#231f20" d="M 275.785156 47.203125 C 278.214844 47.203125 280.648438 47.214844 283.074219 47.261719 C 285.632812 47.308594 288.082031 47.390625 290.433594 47.503906 C 290.15625 46.261719 289.804688 45.042969 289.445312 43.871094 C 288.292969 40.097656 287.074219 36.46875 284.886719 33.519531 C 282.949219 30.910156 280.160156 28.761719 276.828125 27.3125 C 273.035156 25.664062 268.828125 25.03125 265.210938 24.628906 C 260.359375 24.085938 255.175781 23.824219 248.898438 23.792969 L 247.980469 23.792969 C 247.898438 23.792969 247.8125 23.792969 247.730469 23.792969 C 220.066406 23.792969 192.582031 28.3125 166.976562 33.207031 C 150.757812 36.304688 137.210938 39.21875 123.785156 43.378906 C 121.640625 44.042969 119.484375 44.746094 117.316406 45.492188 C 124.933594 45.519531 132.546875 45.464844 139.996094 45.410156 C 147.621094 45.351562 155.5 45.289062 163.261719 45.328125 C 163.269531 45.328125 163.277344 45.328125 163.285156 45.328125 C 178.796875 45.394531 194.546875 45.851562 209.777344 46.292969 C 227.140625 46.796875 245.089844 47.316406 262.738281 47.257812 C 264.640625 47.257812 266.539062 47.246094 268.441406 47.230469 C 270.859375 47.214844 273.316406 47.203125 275.785156 47.203125 Z M 295.304688 47.792969 C 300.847656 48.1875 305.878906 48.789062 310.675781 49.617188 C 311.78125 49.8125 312.886719 50.023438 313.980469 50.273438 C 313.941406 48.691406 313.78125 47.1875 313.617188 45.929688 C 312.785156 39.542969 311.339844 33.664062 309.316406 28.464844 C 307.382812 23.488281 305.222656 19.984375 302.527344 17.4375 C 299.375 14.464844 295.003906 12.359375 289.171875 11.007812 C 284.847656 10.003906 280.007812 9.453125 274.375 9.316406 C 269.433594 9.199219 264.359375 9.40625 259.449219 9.605469 L 259.0625 9.621094 C 255.503906 9.761719 251.941406 9.898438 248.378906 10.035156 C 219.746094 11.125 190.132812 12.25 161.644531 17.632812 C 143.1875 21.121094 125.253906 26.359375 108.625 31.503906 C 103.144531 33.199219 98.597656 34.660156 94.191406 36.726562 C 89.199219 39.074219 85.171875 41.910156 82.222656 45.167969 C 81.082031 46.425781 80.046875 47.820312 79.121094 49.328125 C 82.351562 47.398438 86.308594 46.144531 90.898438 45.601562 C 94.875 45.132812 98.871094 45.222656 102.738281 45.3125 L 103.472656 45.328125 C 103.714844 45.332031 103.960938 45.335938 104.203125 45.34375 C 110.257812 42.910156 116.375 40.734375 122.390625 38.875 C 136.019531 34.648438 149.71875 31.699219 166.089844 28.570312 C 192.289062 23.5625 220.480469 18.949219 248.921875 19.074219 L 251.273438 19.097656 C 256.6875 19.179688 261.332031 19.449219 265.734375 19.9375 C 269.699219 20.378906 274.34375 21.085938 278.707031 22.988281 C 282.796875 24.761719 286.246094 27.4375 288.671875 30.707031 C 291.308594 34.257812 292.730469 38.472656 293.960938 42.492188 C 294.46875 44.160156 294.972656 45.9375 295.304688 47.792969 Z M 74.664062 60.542969 L 70.335938 58.816406 C 71.816406 52.238281 74.71875 46.421875 78.726562 42 C 82.097656 38.28125 86.625 35.066406 92.1875 32.457031 C 96.867188 30.261719 101.570312 28.746094 107.234375 26.992188 C 123.992188 21.8125 142.078125 16.53125 160.765625 13 C 189.601562 7.550781 219.390625 6.414062 248.199219 5.320312 C 251.757812 5.1875 255.320312 5.050781 258.875 4.90625 L 259.261719 4.890625 C 264.242188 4.6875 269.394531 4.476562 274.488281 4.601562 C 280.445312 4.742188 285.597656 5.335938 290.234375 6.410156 C 296.90625 7.960938 301.984375 10.445312 305.765625 14.003906 C 308.992188 17.050781 311.519531 21.101562 313.714844 26.753906 C 315.875 32.304688 317.414062 38.554688 318.296875 45.328125 C 318.582031 47.554688 318.867188 50.488281 318.59375 53.46875 L 318.335938 56.25 L 315.632812 55.53125 C 313.761719 55.03125 311.820312 54.601562 309.871094 54.265625 C 305.484375 53.507812 300.882812 52.949219 295.84375 52.5625 L 295.851562 52.621094 L 293.09375 52.453125 C 289.691406 52.246094 286.359375 52.050781 282.980469 51.980469 C 278.128906 51.890625 273.171875 51.917969 268.378906 51.953125 C 266.5 51.960938 264.628906 51.972656 262.753906 51.980469 C 245.027344 52.035156 227.027344 51.515625 209.628906 51.007812 C 194.421875 50.570312 178.695312 50.109375 163.242188 50.042969 C 163.238281 50.042969 163.238281 50.042969 163.234375 50.042969 C 155.5 50.011719 147.632812 50.070312 140.023438 50.128906 C 128.015625 50.222656 115.59375 50.316406 103.371094 50.042969 L 102.628906 50.023438 C 98.925781 49.941406 95.097656 49.855469 91.449219 50.285156 C 87.226562 50.785156 83.691406 51.953125 80.945312 53.753906 C 78.535156 55.328125 76.421875 57.613281 74.664062 60.542969 Z M 73.070312 89.3125 C 71.800781 89.3125 70.535156 89.34375 69.277344 89.414062 C 64.089844 89.699219 59.421875 90.632812 55.402344 92.195312 C 50.835938 93.964844 46.925781 96.621094 44.082031 99.875 C 41.707031 102.601562 40.0625 105.757812 39.324219 109 C 38.546875 112.398438 38.78125 115.9375 39.988281 118.964844 C 41.003906 121.515625 42.824219 123.996094 45.25 126.128906 C 47.320312 127.957031 49.914062 129.625 53.183594 131.242188 C 56.835938 133.046875 60.660156 134.484375 64.589844 135.53125 L 64.789062 124.773438 C 63.085938 124.363281 61.351562 123.960938 59.613281 123.574219 L 59.519531 123.550781 C 57.640625 123.132812 55.519531 122.65625 53.601562 121.554688 C 52.453125 120.898438 51.5 120.089844 50.761719 119.148438 C 49.886719 118.023438 49.339844 116.726562 49.183594 115.398438 C 48.945312 113.40625 49.585938 111.308594 50.984375 109.488281 C 52.109375 108.019531 53.535156 106.945312 54.90625 106.007812 C 60.226562 102.378906 66.253906 99.777344 72.34375 98.476562 C 77.53125 97.375 82.832031 97.15625 88.09375 97.832031 L 88.339844 97.878906 C 90.429688 98.375 92.671875 98.195312 94.65625 97.375 C 95.300781 97.109375 95.816406 96.820312 96.230469 96.492188 C 96.648438 96.164062 96.972656 95.789062 97.167969 95.40625 C 97.441406 94.875 97.515625 94.214844 97.367188 93.605469 C 97.222656 92.976562 96.84375 92.375 96.324219 91.945312 C 95.804688 91.511719 95.074219 91.175781 94.160156 90.960938 C 93.234375 90.730469 92.226562 90.640625 91.160156 90.542969 L 91.0625 90.535156 C 90.109375 90.449219 89.152344 90.355469 88.199219 90.265625 C 83.222656 89.796875 78.113281 89.3125 73.070312 89.3125 Z M 69.199219 141.417969 L 66.394531 140.816406 C 61.097656 139.671875 55.949219 137.875 51.09375 135.46875 C 47.449219 133.667969 44.519531 131.773438 42.136719 129.671875 C 39.15625 127.046875 36.894531 123.949219 35.605469 120.710938 C 34.050781 116.800781 33.738281 112.269531 34.722656 107.953125 C 35.632812 103.949219 37.640625 100.085938 40.527344 96.777344 C 43.867188 92.945312 48.421875 89.839844 53.691406 87.792969 C 58.179688 86.058594 63.335938 85.015625 69.015625 84.703125 C 75.621094 84.34375 82.242188 84.964844 88.640625 85.570312 C 89.59375 85.660156 90.542969 85.75 91.492188 85.835938 L 91.589844 85.84375 C 92.78125 85.953125 94.007812 86.066406 95.269531 86.375 C 96.890625 86.765625 98.257812 87.417969 99.339844 88.320312 C 100.648438 89.40625 101.582031 90.898438 101.960938 92.519531 C 102.363281 94.234375 102.152344 96.019531 101.367188 97.554688 C 100.855469 98.554688 100.109375 99.441406 99.148438 100.199219 C 98.386719 100.796875 97.511719 101.300781 96.460938 101.734375 C 93.605469 102.914062 90.386719 103.183594 87.375 102.492188 C 82.683594 101.902344 77.957031 102.105469 73.328125 103.089844 C 67.832031 104.261719 62.378906 106.617188 57.566406 109.902344 C 56.523438 110.617188 55.453125 111.414062 54.730469 112.355469 C 54.09375 113.183594 53.777344 114.09375 53.867188 114.847656 C 53.925781 115.3125 54.144531 115.808594 54.484375 116.242188 C 54.839844 116.699219 55.332031 117.113281 55.945312 117.460938 C 57.246094 118.207031 58.851562 118.570312 60.550781 118.949219 L 60.648438 118.96875 C 63.039062 119.503906 65.429688 120.066406 67.746094 120.636719 L 69.574219 121.089844 L 69.199219 141.417969 " fill-opacity="1" fill-rule="nonzero"/></g><path fill="#f8f7f5" d="M 84.5625 69.796875 C 83.382812 69.796875 82.214844 69.300781 81.398438 68.332031 C 79.917969 66.585938 80.132812 63.96875 81.878906 62.488281 C 86.027344 58.976562 91.019531 56.476562 96.316406 55.269531 C 102.613281 53.835938 108.90625 54.257812 114.988281 54.664062 L 116.527344 54.765625 C 125.140625 55.328125 133.902344 55.53125 142.5625 55.375 C 144.855469 55.335938 146.742188 57.152344 146.785156 59.441406 C 146.824219 61.730469 145.003906 63.621094 142.714844 63.660156 C 133.824219 63.824219 124.832031 63.617188 115.988281 63.042969 L 114.433594 62.9375 C 108.691406 62.554688 103.269531 62.1875 98.164062 63.351562 C 94.152344 64.269531 90.378906 66.15625 87.242188 68.8125 C 86.460938 69.472656 85.511719 69.796875 84.5625 69.796875 " fill-opacity="1" fill-rule="nonzero"/><path fill="#231f20" d="M 287.257812 201.757812 C 287.199219 201.757812 287.140625 201.757812 287.078125 201.753906 L 266.109375 200.9375 C 264.507812 200.878906 263.0625 199.960938 262.316406 198.546875 C 261.570312 197.128906 261.632812 195.421875 262.492188 194.066406 L 273.277344 176.957031 C 274.601562 174.863281 277.367188 174.234375 279.464844 175.558594 C 281.558594 176.875 282.183594 179.644531 280.863281 181.738281 L 274.21875 192.28125 L 287.429688 192.792969 C 289.902344 192.886719 291.832031 194.972656 291.738281 197.445312 C 291.644531 199.863281 289.652344 201.757812 287.257812 201.757812 " fill-opacity="1" fill-rule="nonzero"/><path fill="#231f20" d="M 208.996094 242.207031 C 203.832031 242.207031 198.636719 240.804688 194.242188 238.152344 C 188.585938 234.738281 184.136719 229.195312 182.03125 222.941406 C 181.28125 220.71875 182.476562 218.3125 184.699219 217.558594 C 186.921875 216.808594 189.332031 218.007812 190.078125 220.230469 C 191.554688 224.609375 194.671875 228.492188 198.628906 230.878906 C 202.589844 233.265625 207.476562 234.210938 212.042969 233.472656 C 216.1875 232.804688 220.089844 230.785156 223.027344 227.785156 C 225.96875 224.792969 227.917969 220.851562 228.507812 216.695312 C 228.839844 214.375 230.992188 212.761719 233.316406 213.089844 C 235.632812 213.421875 237.25 215.574219 236.921875 217.894531 C 236.074219 223.832031 233.292969 229.460938 229.09375 233.734375 C 224.894531 238.015625 219.320312 240.898438 213.398438 241.859375 C 211.945312 242.09375 210.46875 242.207031 208.996094 242.207031 " fill-opacity="1" fill-rule="nonzero"/><path fill="#f1445a" d="M 166.074219 224.214844 C 164.46875 229.789062 156.046875 233.417969 147.265625 232.328125 C 138.488281 231.238281 132.671875 225.835938 134.277344 220.265625 C 135.878906 214.691406 144.300781 211.058594 153.082031 212.152344 C 161.863281 213.242188 167.675781 218.644531 166.074219 224.214844 " fill-opacity="1" fill-rule="nonzero"/><path fill="#f1445a" d="M 296.320312 219.800781 C 294.71875 225.371094 286.296875 229.003906 277.515625 227.914062 C 268.734375 226.820312 262.921875 221.421875 264.523438 215.847656 C 266.128906 210.277344 274.550781 206.644531 283.328125 207.734375 C 292.113281 208.828125 297.925781 214.226562 296.320312 219.800781 " fill-opacity="1" fill-rule="nonzero"/><path fill="#231f20" d="M 163.640625 198.308594 C 161.175781 206.242188 152.753906 210.679688 144.820312 208.21875 C 136.882812 205.757812 132.441406 197.332031 134.90625 189.398438 C 137.363281 181.46875 145.789062 177.03125 153.726562 179.488281 C 161.660156 181.949219 166.097656 190.375 163.640625 198.308594 " fill-opacity="1" fill-rule="nonzero"/><path fill="#ffffff" d="M 161.433594 191.152344 C 161.335938 193.695312 159.191406 195.675781 156.648438 195.574219 C 154.105469 195.476562 152.125 193.335938 152.222656 190.792969 C 152.320312 188.25 154.464844 186.265625 157.007812 186.367188 C 159.550781 186.464844 161.535156 188.605469 161.433594 191.152344 " fill-opacity="1" fill-rule="nonzero"/><path fill="#ffffff" d="M 156.886719 183.617188 C 156.84375 184.691406 155.941406 185.527344 154.863281 185.484375 C 153.789062 185.445312 152.953125 184.539062 152.996094 183.464844 C 153.035156 182.390625 153.941406 181.550781 155.015625 181.59375 C 156.089844 181.636719 156.929688 182.539062 156.886719 183.617188 " fill-opacity="1" fill-rule="nonzero"/></svg>